<svg width="30" height="30" viewBox="0 0 30 30" fill="none" xmlns="http://www.w3.org/2000/svg">
<g id="search logo">
<path id="Vector" d="M25.9863 24.6211L19.7285 18.3047C20.9531 16.7695 21.6914 14.8242 21.6914 12.709C21.6914 7.75781 17.6777 3.74414 12.7207 3.74414C7.76367 3.74414 3.75 7.76367 3.75 12.7148C3.75 17.666 7.76367 21.6797 12.7207 21.6797C14.8652 21.6797 16.8281 20.9297 18.375 19.6758L24.5918 25.9512C24.7793 26.1504 25.0371 26.25 25.2891 26.25C25.5293 26.25 25.7695 26.1621 25.9512 25.9863C26.3379 25.6172 26.3496 25.0078 25.9863 24.6211ZM12.7207 19.752C10.8398 19.752 9.07031 19.0195 7.74023 17.6895C6.41016 16.3594 5.67773 14.5898 5.67773 12.7148C5.67773 10.834 6.41016 9.06445 7.74023 7.74023C9.07031 6.41016 10.8398 5.67773 12.7207 5.67773C14.6016 5.67773 16.3711 6.41016 17.7012 7.74023C19.0312 9.07031 19.7637 10.8398 19.7637 12.7148C19.7637 14.5957 19.0312 16.3652 17.7012 17.6895C16.3711 19.0195 14.6016 19.752 12.7207 19.752Z" fill="black"/>
</g>
</svg>
