<svg width="460" height="529" viewBox="0 0 460 529" fill="none" xmlns="http://www.w3.org/2000/svg">
<mask id="path-1-inside-1_89_215" fill="white">
<path d="M0 0H459V529H0V0Z"/>
</mask>
<path d="M0 0H459V529H0V0Z" fill="#1E1E1E"/>
<path d="M459 528H0V530H459V528Z" fill="#FFF500" mask="url(#path-1-inside-1_89_215)"/>
<path d="M188.457 446.176C188.457 449.552 188.384 452.659 187.279 455.894C186.057 459.473 186.17 463.163 185.25 466.791C183.906 472.094 182.725 477.351 181.389 482.694" stroke="#B5B5B5" stroke-linecap="round"/>
<path d="M447.901 475.07C447.901 473.314 447.79 471.799 448.554 470.177C449.048 469.126 449.131 467.936 449.696 466.932C450.133 466.154 450.402 466.094 450.529 465.138C450.731 463.626 452.295 462.123 453.121 460.896C454.511 458.833 453.711 460.536 454.263 461.531C454.52 461.992 454.397 462.491 454.426 462.999C454.464 463.633 455.079 463.87 455.079 464.467C455.079 465.593 455.328 466.417 455.659 467.494C456.132 469.031 457.444 470.257 458.668 471.482" stroke="#B5B5B5" stroke-linecap="round"/>
<path d="M430.936 457.452C432.602 455.971 432.241 454.233 432.241 452.051C432.241 447.958 433.107 442.83 431.842 438.928C431.197 436.939 431.282 436.444 432.639 438.203C434.263 440.307 435.411 442.792 435.902 445.453C437.159 452.262 439.449 458.916 440.397 465.79C440.512 466.621 440.36 469.175 440.76 467.675C441.021 466.696 441.281 465.894 441.376 464.884C441.467 463.912 442.355 463.146 442.355 462.183C442.355 459.472 444.31 458.193 445.291 455.984C446.164 454.019 446.596 457.331 446.596 457.76C446.596 459.826 447.249 461.828 447.249 463.959C447.249 467.772 447.249 471.584 447.249 475.397" stroke="#B5B5B5" stroke-linecap="round"/>
<path d="M189 445.871C193.39 452.278 197.867 462.062 201.971 468.665C203.23 470.69 205.367 472.184 206.324 474.372C207.356 476.732 207.939 479.31 209.064 481.626C210.361 484.295 212.385 486.491 213.546 489.235C213.64 489.458 214.978 491.726 215.029 490.363C215.302 482.995 214.727 475.646 217.028 468.536C218.572 463.762 218.912 467.099 221.413 469.6C223.836 472.024 227.295 473.663 229.505 476.242C229.938 476.747 232.311 477.186 233.019 477.145C234.993 477.028 234.18 471.804 234.18 470.761C234.18 462.379 233.919 453.969 231.472 445.871C230.226 441.749 227.383 436.943 227.216 432.587C227.18 431.666 226.463 430.93 226.055 430.137C225.163 428.402 225.01 426.822 224.572 424.946C224.362 424.045 221.291 417.346 223.154 419.111C226.031 421.837 228.678 424.635 231.472 427.429C234.252 430.209 237.487 432.878 239.725 436.134C242.773 440.567 245.142 445.663 247.721 450.385C251.518 457.335 256.169 463.748 259.973 470.664C260.196 471.07 261.391 472.675 261.391 471.212C261.391 467.117 259.262 462.76 258.812 458.638C258.026 451.43 259.31 443.621 257.071 436.585C256.915 436.094 255.618 434.563 256.233 434.909C257.531 435.639 258.348 437.492 259.199 438.617C263.588 444.417 267.413 449.425 270.741 455.994C271.723 457.933 272.957 459.816 274.094 461.669C274.477 462.292 275.384 464.173 275.384 463.442C275.384 461.808 276.471 460.058 277.254 458.703C279.539 454.748 281.846 450.782 284.798 447.289C288.812 442.54 292.695 438.562 297.372 434.522C298.161 433.841 301.041 430.653 302.079 430.718C304.277 430.855 301.39 441.048 300.919 442.26C298.476 448.54 296.24 468.804 297.501 462.185C299.335 452.555 307.844 444.09 315.685 439.1C316.75 438.422 318.801 435.573 318.909 438.713C319.152 445.755 316.62 452.869 315.75 459.831C315.098 465.043 314.543 472.082 316.008 477.209C317.144 481.187 321.259 483.406 323.101 478.434C323.405 477.611 324.275 477.067 324.842 476.435C326.231 474.885 326.396 472.725 327.647 471.083C329.452 468.713 331.908 467.047 333.998 464.957C336.51 462.445 338.748 459.009 340.059 455.672C340.386 454.842 343.335 445.484 343.412 445.484C345.242 445.484 347.795 457.97 348.249 459.992C349.321 464.77 351.325 469.819 352.827 474.501C353.246 475.808 353.785 480.145 355.277 478.789C357.597 476.68 360.716 473.097 361.822 470.148C364.657 462.589 364.176 454.973 364.176 447.064C364.176 442.632 363.288 429.362 363.627 433.78C364.058 439.382 366.045 445.526 367.658 450.9C368.864 454.922 370.607 458.876 372.848 462.378C375.479 466.488 376.07 472.368 377.975 476.887C379.173 479.729 380.413 482.699 381.844 485.43C382.589 486.853 382.746 486.797 382.746 485.269C382.746 480.254 384.138 474.719 385.39 469.89C386.809 464.418 387.753 458.427 390.291 453.351C391.878 450.176 392.761 446.278 394.933 443.485C396.238 441.808 397.626 440.198 398.738 438.391C399.215 437.615 404.69 431.765 404.799 433.619C405.116 439.007 405.065 444.801 404.251 450.094C402.982 458.342 400.986 468.442 402.51 476.822C402.994 479.483 407.414 480.821 407.733 477.628C408.476 470.198 410.878 457.157 414.5 450.9C415.577 449.04 422.5 487 420.017 458.445C422.284 460.963 416.209 440.181 418 438.391C420.294 436.097 428.555 454.807 429.496 457.091C430.137 458.648 432.026 458.588 432.075 456.833" stroke="#B5B5B5" stroke-linecap="square"/>
<path d="M179.033 482.694C178.906 481.676 171.828 479.65 170.591 478.963C168.878 478.012 166.737 477.266 164.897 476.346C163.243 475.518 156.771 471.839 157.535 474.742C158.271 477.54 159.226 480.644 159.564 483.512C160.037 487.537 155.118 484.976 153.118 483.741C150.413 482.07 146.575 480.201 146.181 476.738C145.611 471.743 145.341 466.696 144.25 461.784C143.678 459.208 141.532 464.207 141.305 464.729C139.683 468.46 136.996 471.945 134.99 475.495C133.996 477.253 132.689 479.483 131.325 480.927C128.736 483.668 128.38 478.33 128.38 476.411C128.38 471.164 127.754 465.452 128.707 460.279C129.066 458.33 129.46 453.216 130.867 451.608C131.759 450.588 128.471 452.926 127.464 453.833C125.93 455.213 124.125 455.91 122.817 457.694C118.147 464.063 113.066 472.552 113.066 480.796C113.066 482.736 112.996 483.827 111.757 481.254C109.371 476.297 108.391 469.778 104.689 465.547C101.402 461.79 97.5729 458.482 94.2839 454.782C93.2519 453.621 94.211 459.255 94.2185 459.592C94.3633 466.107 94.2185 472.643 94.2185 479.16C94.2185 479.685 93.5012 488.591 92.1897 484.657C90.7317 480.283 90.3979 475.532 88.7867 471.175C87.275 467.088 84.5035 462.079 79.7882 462.079C78.6046 462.079 76.8324 461.577 77.4323 463.257C78.1079 465.149 78.4874 467.24 79.4937 469.016C81.0247 471.718 83.3116 489.509 80.7044 489.074C78.5022 488.707 75.7683 478.486 75.4689 476.64C74.7022 471.912 73.0148 466.812 73.0148 462.046C73.0148 457.587 73.2703 453.353 74.7818 449.121C75.2511 447.807 75.3708 446.7 75.3708 445.325C75.3708 444.101 74.7157 445.195 74.0619 445.456C68.2767 447.77 65.5007 454.356 62.413 459.428C60.1728 463.109 57.3985 468.434 56.5558 472.648C56.2511 474.172 55.9098 477.179 55.2142 478.571C54.0863 480.826 55.3699 487.385 51.2222 485.311C46.0436 482.722 47.0992 477.055 47.0992 472.223C47.0992 471.004 47.8487 463.328 47.0665 464.762C45.9675 466.777 43.5978 468.339 42.7145 470.357C41.7384 472.589 41.2334 476.029 40.7512 478.44C40.3078 480.657 40.0313 483.504 40.0313 485.769C40.0313 489.705 38.3169 477.986 36.4647 474.513C33.5143 468.981 28.4516 466.218 23.9977 462.21C22.5664 460.922 25.5002 467.679 25.6338 467.969C26.2221 469.243 25.7012 470.754 26.0265 472.092C26.4197 473.708 27.8112 474.916 28.1861 476.509C28.8632 479.387 28.2515 483.196 28.2515 486.129C28.2515 489.752 24.699 486.503 22.9506 485.18C20.2566 483.142 18.3548 479.41 17.0607 476.346C16.6432 475.357 15.6907 470.841 14.4103 472.975C12.8791 475.527 12.1666 478.28 10.8436 480.927C10.283 482.048 5.94638 489.494 5.86989 486.816C5.77158 483.376 5.86989 479.919 5.86989 476.476C5.86989 473.807 4.22216 477.089 3.7757 477.982C2.33692 480.859 2.90121 483.099 0.5 485.5" stroke="#B5B5B5" stroke-linecap="round"/>
<path d="M25.7846 25.168C27.2966 23.44 28.9766 22.36 30.8246 21.928C32.0966 21.616 33.2966 21.664 34.4246 22.072C35.3126 21.136 36.4646 20.8 37.8806 21.064C39.1766 21.304 40.2806 22.036 41.1926 23.26C41.2406 23.428 41.3366 23.68 41.4806 24.016C41.6486 24.352 41.8046 24.724 41.9486 25.132C43.0046 27.58 43.0886 30.796 42.2006 34.78C41.0966 39.724 39.1406 43.912 36.3326 47.344C35.4686 48.4 34.4966 49.276 33.4166 49.972C31.6886 51.292 29.6246 51.88 27.2246 51.736C25.7366 51.664 24.4886 51.292 23.4806 50.62C19.4726 48.628 18.1646 44.476 19.5566 38.164C20.7086 32.98 22.7846 28.648 25.7846 25.168ZM26.2166 44.284L26.1806 44.5L26.2526 44.896C26.3966 45.64 26.6366 46.216 26.9726 46.624C27.3086 47.008 27.5846 47.248 27.8006 47.344C28.0406 47.152 28.2806 46.972 28.5206 46.804C28.7606 46.636 28.9766 46.432 29.1686 46.192C30.8006 44.176 32.0726 41.536 32.9846 38.272C33.8966 35.008 34.2326 31.984 33.9926 29.2C33.0566 30.4 32.0726 31.78 31.0406 33.34C30.0086 34.9 29.1926 36.232 28.5926 37.336C27.2246 39.904 26.4326 42.22 26.2166 44.284ZM47.4808 33.412C49.0888 32.764 50.1688 32.752 50.7207 33.376C51.0088 33.712 51.1528 34.18 51.1528 34.78V34.96C52.0408 33.928 53.5888 33.064 55.7968 32.368C58.1248 31.648 60.0448 31.444 61.5568 31.756C63.5248 32.164 64.6288 33.448 64.8688 35.608C65.0608 37.432 64.6408 39.748 63.6088 42.556C63.2728 43.276 63.0088 43.864 62.8168 44.32C62.6488 44.752 62.4928 45.148 62.3488 45.508C62.0368 46.18 61.5448 46.984 60.8728 47.92C60.4888 48.64 59.8888 49.192 59.0728 49.576C58.2808 49.96 57.4888 50.176 56.6968 50.224C55.9288 50.296 55.2928 50.176 54.7888 49.864C54.2848 49.576 54.1408 49.108 54.3568 48.46C54.9088 46.972 55.3648 45.616 55.7248 44.392C56.0848 43.168 56.4568 42.124 56.8408 41.26C57.2008 40.036 57.2488 39.268 56.9848 38.956C56.7688 38.716 56.3968 38.752 55.8688 39.064C55.4128 39.352 55.0888 39.688 54.8968 40.072C54.4648 40.384 53.6488 41.632 52.4488 43.816C52.1128 44.416 51.7768 45.016 51.4408 45.616C51.1288 46.192 50.8288 46.732 50.5408 47.236C50.2768 47.74 50.0368 48.16 49.8208 48.496C49.6288 48.832 49.4488 49.048 49.2808 49.144C49.1368 49.264 49.0048 49.336 48.8848 49.36C48.7888 49.408 48.7048 49.456 48.6328 49.504C48.5608 49.552 48.5008 49.708 48.4528 49.972C48.3568 50.524 47.7808 50.932 46.7248 51.196C45.0208 51.628 43.4848 51.556 42.1168 50.98C41.6608 50.788 41.3007 50.524 41.0367 50.188C40.4847 49.084 41.4328 45.328 43.8808 38.92C44.7448 36.664 45.3088 35.32 45.5728 34.888C46.1728 33.976 46.5568 33.46 46.7248 33.34C46.9168 33.22 47.1688 33.244 47.4808 33.412ZM72.0091 47.596C71.8651 48.1 71.6971 48.544 71.5051 48.928C71.3131 49.312 71.0251 49.672 70.6411 50.008C70.2571 50.344 69.8011 50.656 69.2731 50.944C68.7451 51.256 68.2411 51.472 67.7611 51.592C66.6571 51.832 66.0811 51.508 66.0331 50.62C65.9611 50.38 65.8051 50.236 65.5651 50.188C65.3491 50.164 65.1451 50.104 64.9531 50.008C64.4491 49.792 64.3051 49.204 64.5211 48.244C64.9051 46.924 65.3251 45.328 65.7811 43.456C66.2371 41.56 66.8251 39.484 67.5451 37.228C69.2491 31.756 71.3611 26.824 73.8811 22.432C74.0491 22.216 74.2411 21.94 74.4571 21.604C74.6731 21.244 74.9491 20.92 75.2851 20.632C76.1251 19.864 77.1571 19.684 78.3811 20.092C78.3571 20.404 78.4291 20.692 78.5971 20.956C78.7651 21.196 78.9571 21.448 79.1731 21.712C79.7251 22.336 79.9771 22.9 79.9291 23.404C77.3851 29.428 75.0931 36.16 73.0531 43.6C72.8131 44.464 72.6211 45.22 72.4771 45.868C72.3331 46.516 72.1771 47.092 72.0091 47.596ZM80.2872 33.412C80.5992 32.62 81.3432 32.08 82.5192 31.792C83.6232 31.504 84.6552 31.54 85.6152 31.9C86.5992 32.284 87.0432 32.908 86.9472 33.772C86.6832 34.612 86.3472 35.644 85.9392 36.868C85.5552 38.068 85.1832 39.304 84.8232 40.576C83.8632 43.84 83.3112 46.144 83.1672 47.488C82.8072 49.648 82.2072 50.812 81.3672 50.98C81.1272 51.028 80.8992 51.064 80.6832 51.088C80.1552 51.112 79.8192 51.256 79.6752 51.52C79.5312 51.784 79.2912 51.976 78.9552 52.096C78.6192 52.24 78.2472 52.3 77.8392 52.276C77.4552 52.276 77.0592 52.18 76.6512 51.988C76.2432 51.82 75.8952 51.568 75.6072 51.232C74.9352 50.416 74.8032 49.324 75.2112 47.956C75.5952 45.34 76.5672 42.016 78.1272 37.984C78.8712 35.992 79.5912 34.468 80.2872 33.412ZM87.0912 28.012C85.9152 28.252 84.9552 28.18 84.2112 27.796C83.4912 27.412 83.0712 26.956 82.9512 26.428C82.8312 25.876 82.9992 25.312 83.4552 24.736C83.9832 24.016 84.7752 23.548 85.8312 23.332C86.3112 23.284 86.6592 23.26 86.8752 23.26C87.0912 23.26 87.3552 23.308 87.6672 23.404C88.4592 23.476 88.9752 23.824 89.2152 24.448C89.5512 24.976 89.5752 25.576 89.2872 26.248C89.0232 26.92 88.2912 27.508 87.0912 28.012ZM93.1136 33.412C94.7216 32.764 95.8016 32.752 96.3536 33.376C96.6416 33.712 96.7856 34.18 96.7856 34.78V34.96C97.6736 33.928 99.2216 33.064 101.43 32.368C103.758 31.648 105.678 31.444 107.19 31.756C109.158 32.164 110.262 33.448 110.502 35.608C110.694 37.432 110.274 39.748 109.242 42.556C108.906 43.276 108.642 43.864 108.45 44.32C108.282 44.752 108.126 45.148 107.982 45.508C107.67 46.18 107.178 46.984 106.506 47.92C106.122 48.64 105.522 49.192 104.706 49.576C103.914 49.96 103.122 50.176 102.33 50.224C101.562 50.296 100.926 50.176 100.422 49.864C99.9176 49.576 99.7736 49.108 99.9896 48.46C100.542 46.972 100.998 45.616 101.358 44.392C101.718 43.168 102.09 42.124 102.474 41.26C102.834 40.036 102.882 39.268 102.618 38.956C102.402 38.716 102.03 38.752 101.502 39.064C101.046 39.352 100.722 39.688 100.53 40.072C100.098 40.384 99.2816 41.632 98.0816 43.816C97.7456 44.416 97.4096 45.016 97.0736 45.616C96.7616 46.192 96.4616 46.732 96.1736 47.236C95.9096 47.74 95.6696 48.16 95.4536 48.496C95.2616 48.832 95.0816 49.048 94.9136 49.144C94.7696 49.264 94.6376 49.336 94.5176 49.36C94.4216 49.408 94.3376 49.456 94.2656 49.504C94.1936 49.552 94.1336 49.708 94.0856 49.972C93.9896 50.524 93.4136 50.932 92.3576 51.196C90.6536 51.628 89.1176 51.556 87.7496 50.98C87.2936 50.788 86.9336 50.524 86.6696 50.188C86.1176 49.084 87.0656 45.328 89.5136 38.92C90.3776 36.664 90.9416 35.32 91.2056 34.888C91.8056 33.976 92.1896 33.46 92.3576 33.34C92.5496 33.22 92.8016 33.244 93.1136 33.412ZM123.15 43.672C122.694 43.888 122.25 44.056 121.818 44.176C121.386 44.296 120.882 44.416 120.306 44.536C118.794 44.848 117.702 45.028 117.03 45.076C117.102 45.316 117.462 45.604 118.11 45.94C118.542 46.012 119.01 45.952 119.514 45.76C120.042 45.544 120.582 45.352 121.134 45.184C121.71 44.992 122.262 44.884 122.79 44.86C123.342 44.836 123.858 45.04 124.338 45.472C124.53 45.904 124.686 46.156 124.806 46.228C124.926 46.3 125.034 46.336 125.13 46.336C125.226 46.336 125.334 46.372 125.454 46.444C125.574 46.516 125.742 46.792 125.958 47.272C126.198 47.752 126.138 48.208 125.778 48.64C125.442 49.072 124.914 49.444 124.194 49.756C123.474 50.068 122.634 50.32 121.674 50.512C120.714 50.704 119.754 50.836 118.794 50.908C116.634 51.076 114.99 50.908 113.862 50.404C112.23 49.852 111.174 48.76 110.694 47.128C110.07 44.968 110.418 42.448 111.738 39.568C112.338 38.224 113.286 36.784 114.582 35.248C115.71 33.904 116.97 32.932 118.362 32.332C119.97 31.636 121.65 31.312 123.402 31.36C125.274 31.408 126.57 32.224 127.29 33.808C127.65 34.648 127.722 35.824 127.506 37.336C127.122 39.304 126.618 40.696 125.994 41.512C125.37 42.304 124.422 43.024 123.15 43.672ZM121.062 37.984C119.79 37.72 118.794 38.44 118.074 40.144C117.858 40.6 117.69 41.08 117.57 41.584C118.386 41.68 119.25 41.224 120.162 40.216C120.498 39.808 120.75 39.4 120.918 38.992C121.086 38.56 121.134 38.224 121.062 37.984ZM130.401 35.032C130.881 33.424 131.265 32.188 131.553 31.324C131.865 30.436 132.165 29.644 132.453 28.948C132.741 28.252 133.065 27.58 133.425 26.932C133.809 26.284 134.217 25.696 134.649 25.168C135.105 24.616 135.585 24.184 136.089 23.872C136.593 23.56 137.121 23.404 137.673 23.404C138.225 23.404 138.801 23.62 139.401 24.052C140.361 26.452 140.949 28.06 141.165 28.876C141.453 30.076 141.717 31.768 141.957 33.952C142.173 33.4 142.413 32.824 142.677 32.224C142.965 31.6 143.241 30.976 143.505 30.352C144.249 28.768 144.717 27.568 144.909 26.752C145.437 25.072 146.529 23.812 148.185 22.972C149.625 22.252 150.969 22.024 152.217 22.288C152.721 22.384 153.069 22.588 153.261 22.9C153.477 23.212 153.477 23.536 153.261 23.872C153.069 24.208 152.997 24.532 153.045 24.844C153.117 25.132 153.177 25.48 153.225 25.888C153.297 26.992 153.105 27.976 152.649 28.84C152.193 29.68 151.725 30.736 151.245 32.008C150.765 33.256 150.273 34.588 149.769 36.004C149.289 37.42 148.797 38.86 148.293 40.324C147.789 41.788 147.297 43.12 146.817 44.32C145.761 47.08 144.897 48.604 144.225 48.892C143.313 49.444 142.641 49.768 142.209 49.864C141.657 49.96 140.877 49.96 139.869 49.864C139.245 49.816 138.705 49.012 138.249 47.452C137.985 46.612 137.745 45.448 137.529 43.96C137.145 41.368 136.881 39.94 136.737 39.676C135.777 42.796 135.093 44.764 134.685 45.58C134.301 46.396 134.001 46.936 133.785 47.2C133.593 47.464 133.353 47.812 133.065 48.244C132.753 49.108 132.009 49.744 130.833 50.152C129.825 50.536 128.913 50.596 128.097 50.332C127.209 50.044 126.945 49.492 127.305 48.676C127.569 45.796 128.601 41.248 130.401 35.032ZM155.669 33.628C156.173 33.268 156.797 33.184 157.541 33.376C157.685 33.4 157.829 33.412 157.973 33.412C158.501 32.332 159.413 31.768 160.709 31.72C161.045 31.696 161.513 31.636 162.113 31.54C162.713 31.444 163.433 31.468 164.273 31.612C165.137 31.756 165.893 32.008 166.541 32.368C167.957 33.136 168.809 34.24 169.097 35.68C169.673 37.792 169.589 40.096 168.845 42.592C168.053 45.352 166.709 47.56 164.813 49.216C163.949 49.984 163.037 50.464 162.077 50.656C161.117 50.872 160.253 50.992 159.485 51.016C158.717 51.04 158.009 51.04 157.361 51.016C156.737 51.016 156.125 50.956 155.525 50.836C154.229 50.572 153.161 49.96 152.321 49C151.337 47.92 150.917 46.24 151.061 43.96C151.157 41.944 151.661 39.916 152.573 37.876C153.509 35.812 154.541 34.396 155.669 33.628ZM162.005 40.864C161.405 41.056 160.841 41.14 160.313 41.116C160.049 41.38 159.809 41.668 159.593 41.98C159.401 42.268 159.137 42.544 158.801 42.808C158.465 43.048 158.297 43.144 158.297 43.096C157.889 43.672 157.553 44.272 157.289 44.896C157.025 45.496 157.025 46.108 157.289 46.732C158.249 46.828 158.957 46.804 159.413 46.66C159.869 46.516 160.289 46.24 160.673 45.832C161.081 45.424 161.393 44.944 161.609 44.392C162.041 43.36 162.173 42.184 162.005 40.864ZM179.264 22.072L179.3 21.928L179.624 21.604C179.888 20.98 180.176 20.608 180.488 20.488C180.656 20.44 180.872 20.38 181.136 20.308C181.4 20.236 181.748 20.056 182.18 19.768C182.348 19.432 182.696 19.288 183.224 19.336C183.752 19.36 184.268 19.528 184.772 19.84C185.3 20.128 185.72 20.536 186.032 21.064C186.368 21.592 186.452 22.144 186.284 22.72C186.116 23.272 185.972 23.692 185.852 23.98C185.756 24.244 185.648 24.496 185.528 24.736C185.432 24.976 185.3 25.252 185.132 25.564C184.988 25.852 184.796 26.248 184.556 26.752L183.368 29.236C183.248 29.548 183.14 29.728 183.044 29.776C182.972 29.824 182.9 29.908 182.828 30.028C183.044 29.98 183.224 29.944 183.368 29.92C183.512 29.896 183.656 29.872 183.8 29.848C184.136 29.8 184.52 29.752 184.952 29.704C185.216 29.752 185.444 29.776 185.636 29.776H186.14C186.428 29.776 186.776 29.86 187.184 30.028C187.592 30.172 187.856 30.436 187.976 30.82C188.096 31.204 188.108 31.6 188.012 32.008C187.916 32.392 187.724 32.752 187.436 33.088C187.148 33.424 186.776 33.604 186.32 33.628C184.232 34.204 182.744 34.516 181.856 34.564L181.64 34.816V34.852C181.4 35.428 181.136 36.16 180.848 37.048C180.584 37.912 180.284 38.86 179.948 39.892C179.636 40.9 179.312 41.956 178.976 43.06C178.64 44.14 178.292 45.184 177.932 46.192C176.78 49.576 175.94 51.412 175.412 51.7C175.22 51.796 175.016 51.856 174.8 51.88C174.608 51.928 174.5 51.964 174.476 51.988C173.636 51.94 172.94 51.772 172.388 51.484C171.836 51.196 171.464 50.92 171.272 50.656C171.08 50.392 171.032 50.092 171.128 49.756C171.584 45.58 172.496 41.008 173.864 36.04C173.384 36.04 173.048 36.088 172.856 36.184C172.496 36.376 172.064 36.484 171.56 36.508H171.524C171.14 36.484 170.792 36.304 170.48 35.968C170.168 35.632 169.976 35.248 169.904 34.816C169.832 34.384 169.904 33.94 170.12 33.484C170.336 33.028 170.768 32.668 171.416 32.404C172.184 32.188 172.748 32.008 173.108 31.864C173.804 31.576 174.38 31.372 174.836 31.252C175.316 31.132 175.58 31.06 175.628 31.036C175.7 30.988 175.748 30.952 175.772 30.928C175.844 30.88 176.024 30.856 176.312 30.856C176.456 30.16 176.6 29.452 176.744 28.732C176.888 28.012 177.068 27.28 177.284 26.536C177.764 24.808 178.424 23.32 179.264 22.072ZM197.752 43.672C197.296 43.888 196.852 44.056 196.42 44.176C195.988 44.296 195.484 44.416 194.908 44.536C193.396 44.848 192.304 45.028 191.632 45.076C191.704 45.316 192.064 45.604 192.712 45.94C193.144 46.012 193.612 45.952 194.116 45.76C194.644 45.544 195.184 45.352 195.736 45.184C196.312 44.992 196.864 44.884 197.392 44.86C197.944 44.836 198.46 45.04 198.94 45.472C199.132 45.904 199.288 46.156 199.408 46.228C199.528 46.3 199.636 46.336 199.732 46.336C199.828 46.336 199.936 46.372 200.056 46.444C200.176 46.516 200.344 46.792 200.56 47.272C200.8 47.752 200.74 48.208 200.38 48.64C200.044 49.072 199.516 49.444 198.796 49.756C198.076 50.068 197.236 50.32 196.276 50.512C195.316 50.704 194.356 50.836 193.396 50.908C191.236 51.076 189.592 50.908 188.464 50.404C186.832 49.852 185.776 48.76 185.296 47.128C184.671 44.968 185.019 42.448 186.34 39.568C186.94 38.224 187.888 36.784 189.184 35.248C190.312 33.904 191.572 32.932 192.964 32.332C194.572 31.636 196.252 31.312 198.004 31.36C199.876 31.408 201.172 32.224 201.892 33.808C202.252 34.648 202.324 35.824 202.108 37.336C201.724 39.304 201.22 40.696 200.596 41.512C199.972 42.304 199.024 43.024 197.752 43.672ZM195.664 37.984C194.392 37.72 193.396 38.44 192.676 40.144C192.46 40.6 192.292 41.08 192.172 41.584C192.988 41.68 193.852 41.224 194.764 40.216C195.1 39.808 195.352 39.4 195.52 38.992C195.688 38.56 195.736 38.224 195.664 37.984ZM209.431 49.108L208.531 49.936C208.051 50.272 207.583 50.476 207.127 50.548L207.163 50.584L206.983 50.728C205.279 50.872 204.019 50.5 203.203 49.612C202.363 48.676 202.183 47.452 202.663 45.94C203.719 39.964 205.195 34.42 207.091 29.308C208.363 25.852 209.587 23.536 210.763 22.36C211.387 21.76 211.963 21.58 212.491 21.82C212.635 21.244 212.887 20.8 213.247 20.488C213.607 20.152 214.003 19.96 214.435 19.912C214.867 19.84 215.287 19.912 215.695 20.128C216.103 20.32 216.415 20.68 216.631 21.208C216.871 21.736 216.967 22.252 216.919 22.756C216.895 23.236 216.787 23.716 216.595 24.196C216.427 24.652 216.211 25.108 215.947 25.564C215.707 26.02 215.479 26.476 215.263 26.932C213.727 30.628 212.635 33.364 211.987 35.14L212.311 34.924C213.895 33.868 215.587 33.4 217.387 33.52C218.179 33.592 218.887 33.808 219.511 34.168C220.159 34.504 220.627 35.02 220.915 35.716C221.227 36.412 221.347 37.312 221.275 38.416C221.227 39.496 221.023 40.624 220.663 41.8C220.303 42.952 219.811 44.08 219.187 45.184C218.587 46.288 217.915 47.248 217.171 48.064C215.491 49.912 213.871 50.608 212.311 50.152C211.639 50.248 210.859 49.936 209.971 49.216C209.779 49.048 209.599 48.916 209.431 48.82V49.108ZM210.403 46.516C210.763 46.108 211.375 45.34 212.239 44.212C213.127 43.084 213.715 42.208 214.003 41.584C214.315 40.936 214.243 40.336 213.787 39.784C213.331 39.208 212.755 39.64 212.059 41.08C210.955 43.384 210.403 45.196 210.403 46.516ZM226.685 33.628C227.189 33.268 227.813 33.184 228.557 33.376C228.701 33.4 228.845 33.412 228.989 33.412C229.517 32.332 230.429 31.768 231.725 31.72C232.061 31.696 232.529 31.636 233.129 31.54C233.729 31.444 234.449 31.468 235.289 31.612C236.153 31.756 236.909 32.008 237.557 32.368C238.973 33.136 239.825 34.24 240.113 35.68C240.689 37.792 240.605 40.096 239.861 42.592C239.069 45.352 237.725 47.56 235.829 49.216C234.965 49.984 234.053 50.464 233.093 50.656C232.133 50.872 231.269 50.992 230.501 51.016C229.733 51.04 229.025 51.04 228.377 51.016C227.753 51.016 227.141 50.956 226.541 50.836C225.245 50.572 224.177 49.96 223.337 49C222.353 47.92 221.933 46.24 222.077 43.96C222.173 41.944 222.677 39.916 223.589 37.876C224.525 35.812 225.557 34.396 226.685 33.628ZM233.021 40.864C232.421 41.056 231.857 41.14 231.329 41.116C231.065 41.38 230.825 41.668 230.609 41.98C230.417 42.268 230.153 42.544 229.817 42.808C229.481 43.048 229.313 43.144 229.313 43.096C228.905 43.672 228.569 44.272 228.305 44.896C228.041 45.496 228.041 46.108 228.305 46.732C229.265 46.828 229.973 46.804 230.429 46.66C230.885 46.516 231.305 46.24 231.689 45.832C232.097 45.424 232.409 44.944 232.625 44.392C233.057 43.36 233.189 42.184 233.021 40.864ZM245.563 33.628C246.067 33.268 246.691 33.184 247.435 33.376C247.579 33.4 247.723 33.412 247.867 33.412C248.395 32.332 249.307 31.768 250.603 31.72C250.939 31.696 251.407 31.636 252.007 31.54C252.607 31.444 253.327 31.468 254.167 31.612C255.031 31.756 255.787 32.008 256.435 32.368C257.851 33.136 258.703 34.24 258.991 35.68C259.567 37.792 259.483 40.096 258.739 42.592C257.947 45.352 256.603 47.56 254.707 49.216C253.843 49.984 252.931 50.464 251.971 50.656C251.011 50.872 250.147 50.992 249.379 51.016C248.611 51.04 247.903 51.04 247.255 51.016C246.631 51.016 246.019 50.956 245.419 50.836C244.123 50.572 243.055 49.96 242.215 49C241.231 47.92 240.811 46.24 240.955 43.96C241.051 41.944 241.555 39.916 242.467 37.876C243.403 35.812 244.435 34.396 245.563 33.628ZM251.899 40.864C251.299 41.056 250.735 41.14 250.207 41.116C249.943 41.38 249.703 41.668 249.487 41.98C249.295 42.268 249.031 42.544 248.695 42.808C248.359 43.048 248.191 43.144 248.191 43.096C247.783 43.672 247.447 44.272 247.183 44.896C246.919 45.496 246.919 46.108 247.183 46.732C248.143 46.828 248.851 46.804 249.307 46.66C249.763 46.516 250.183 46.24 250.567 45.832C250.975 45.424 251.287 44.944 251.503 44.392C251.935 43.36 252.067 42.184 251.899 40.864ZM266.494 20.74C267.022 20.092 267.658 19.732 268.402 19.66C269.146 19.588 269.866 19.708 270.562 20.02C271.258 20.308 271.846 20.764 272.326 21.388C272.83 21.988 273.106 22.66 273.154 23.404L272.83 24.448C273.094 24.76 273.322 25.012 273.514 25.204C273.73 25.396 273.85 25.696 273.874 26.104C274.018 26.44 273.418 27.772 272.074 30.1C271.522 31.06 270.934 32.068 270.31 33.124C269.71 34.156 269.218 35.08 268.834 35.896C269.122 35.824 269.41 35.764 269.698 35.716C269.986 35.668 270.274 35.608 270.562 35.536C272.338 35.08 273.538 34.852 274.162 34.852C274.786 34.828 275.302 34.888 275.71 35.032C276.814 35.464 277.39 36.136 277.438 37.048C277.102 37.84 275.842 38.944 273.658 40.36C273.154 40.672 272.746 40.936 272.434 41.152L269.302 43.384C269.134 43.648 269.014 43.9 268.942 44.14V44.176C268.99 44.296 269.29 44.464 269.842 44.68C270.418 44.896 270.91 45.088 271.318 45.256C272.278 45.688 273.13 46.276 273.874 47.02C274.114 47.284 274.27 47.68 274.342 48.208C274.414 48.712 274.33 49.18 274.09 49.612C273.874 50.044 273.478 50.356 272.902 50.548C272.326 50.74 271.522 50.656 270.49 50.296C268.978 49.624 267.19 48.124 265.126 45.796C264.886 46.636 264.646 47.464 264.406 48.28C264.19 49.072 263.95 49.888 263.686 50.728C263.326 51.544 262.486 51.928 261.166 51.88C260.638 51.88 260.158 51.772 259.726 51.556C259.318 51.34 259.078 51.052 259.006 50.692C258.814 50.164 258.718 49.768 258.718 49.504C258.718 49.264 258.778 48.976 258.898 48.64C259.45 47.248 259.798 46.144 259.942 45.328C260.086 44.488 260.182 43.996 260.23 43.852C259.558 43.42 259.162 42.736 259.042 41.8C258.898 40.888 259.114 40.072 259.69 39.352C260.458 39.064 261.01 38.848 261.346 38.704C261.49 37.792 261.73 36.808 262.066 35.752C262.666 33.856 263.122 32.212 263.434 30.82C263.77 29.428 264.238 27.856 264.838 26.104C265.462 24.328 266.014 22.54 266.494 20.74Z" fill="#FFF500" fill-opacity="0.72"/>
<line x1="140.551" y1="227.189" x2="118.463" y2="281.189" stroke="#FFF500"/>
<line x1="150.685" y1="223.154" x2="389.33" y2="226.846" stroke="#FFF500"/>
<line x1="398.468" y1="231.177" x2="350.468" y2="358.177" stroke="#FFF500"/>
<line x1="120.069" y1="313.505" x2="335.069" y2="343.505" stroke="#FFF500"/>
<path d="M275.269 266.236L277.843 263.662L271.195 257.014L268.621 259.588V262.615H272.242V266.236H275.269ZM290.064 239.984C290.064 239.57 289.856 239.362 289.441 239.362C289.253 239.362 289.092 239.428 288.96 239.56L273.628 254.893C273.496 255.025 273.43 255.185 273.43 255.373C273.43 255.788 273.638 255.996 274.052 255.996C274.241 255.996 274.401 255.93 274.533 255.798L289.866 240.465C289.998 240.333 290.064 240.173 290.064 239.984ZM288.536 234.553L300.304 246.321L276.768 269.857H265V258.089L288.536 234.553ZM307.857 237.269C307.857 238.268 307.508 239.117 306.81 239.815L302.115 244.511L290.347 232.743L295.042 228.075C295.721 227.358 296.57 227 297.588 227C298.588 227 299.446 227.358 300.163 228.075L306.81 234.694C307.508 235.43 307.857 236.288 307.857 237.269Z" fill="white"/>
<path d="M181.729 279.547L181.121 280.709C181.035 280.887 180.955 281.073 180.881 281.266C180.806 281.46 180.732 281.626 180.656 281.765C180.58 281.911 180.475 282.021 180.34 282.093C180.211 282.167 180.069 282.215 179.912 282.239C179.754 282.269 179.593 282.272 179.428 282.247C179.27 282.224 179.13 282.179 179.01 282.112C178.739 281.949 178.663 281.72 178.782 281.424C179.23 280.118 179.63 279.074 179.982 278.294C180.34 277.514 180.63 276.902 180.852 276.456C181.081 276.011 181.319 275.54 181.567 275.044C181.607 274.854 181.705 274.69 181.861 274.552C182.016 274.415 182.192 274.306 182.388 274.227C182.591 274.148 182.797 274.1 183.007 274.082C183.218 274.057 183.401 274.07 183.556 274.12C183.712 274.171 183.82 274.256 183.881 274.376C183.948 274.498 183.937 274.661 183.848 274.866C183.545 275.45 183.329 275.863 183.203 276.104C183.077 276.345 182.963 276.561 182.862 276.752L182.514 277.378C182.652 277.4 182.83 277.398 183.047 277.375C183.441 277.33 183.722 277.33 183.892 277.375C183.895 277.341 183.918 277.287 183.96 277.211C184.232 276.422 184.52 275.702 184.824 275.051C185.05 274.511 185.508 274.266 186.201 274.313C186.472 274.342 186.671 274.43 186.796 274.578C186.933 274.733 186.933 274.924 186.795 275.151C186.002 276.796 185.427 278.099 185.069 279.059C184.662 280.169 184.391 280.918 184.256 281.306C184.127 281.694 184.026 281.921 183.952 281.987C183.877 282.053 183.803 282.095 183.727 282.114C183.657 282.14 183.587 282.163 183.518 282.182C183.449 282.202 183.389 282.262 183.338 282.364L183.308 282.361C183.242 282.474 183.116 282.555 182.93 282.602C182.744 282.649 182.559 282.653 182.376 282.613C182.198 282.581 182.053 282.498 181.94 282.365C181.833 282.24 181.822 282.061 181.907 281.829C182.013 281.458 182.166 281.065 182.365 280.651C182.564 280.23 182.72 279.901 182.832 279.665C182.951 279.43 183.052 279.209 183.134 279.003C183.078 279.024 183.023 279.038 182.969 279.046C182.921 279.054 182.859 279.074 182.781 279.106C182.705 279.132 182.625 279.153 182.543 279.171C182.467 279.19 182.392 279.209 182.316 279.227C182.122 279.28 181.962 279.337 181.835 279.397L181.729 279.547ZM182.923 279.001C182.93 279.001 182.964 278.995 183.026 278.982C182.985 278.991 182.951 278.997 182.923 279.001ZM188.956 280.875C188.811 280.926 188.67 280.963 188.535 280.985C188.4 281.007 188.243 281.027 188.064 281.045C187.594 281.091 187.257 281.11 187.051 281.103C187.065 281.178 187.165 281.277 187.351 281.4C187.48 281.436 187.624 281.433 187.784 281.391C187.951 281.343 188.121 281.302 188.294 281.269C188.476 281.229 188.647 281.215 188.808 281.224C188.977 281.235 189.127 281.314 189.259 281.461C189.303 281.598 189.342 281.68 189.376 281.706C189.41 281.731 189.442 281.746 189.471 281.749C189.5 281.752 189.532 281.766 189.566 281.792C189.6 281.818 189.642 281.907 189.692 282.06C189.75 282.214 189.717 282.35 189.593 282.47C189.477 282.59 189.304 282.686 189.076 282.758C188.847 282.829 188.583 282.878 188.285 282.905C187.987 282.932 187.691 282.941 187.397 282.932C186.736 282.913 186.242 282.808 185.915 282.619C185.438 282.398 185.152 282.032 185.059 281.52C184.94 280.844 185.128 280.089 185.622 279.257C185.848 278.868 186.183 278.462 186.627 278.037C187.013 277.666 187.428 277.411 187.87 277.274C188.381 277.115 188.902 277.071 189.433 277.143C190 277.218 190.367 277.508 190.535 278.013C190.617 278.28 190.6 278.639 190.486 279.092C190.305 279.677 190.107 280.084 189.89 280.311C189.675 280.532 189.364 280.72 188.956 280.875ZM188.507 279.079C188.129 278.958 187.803 279.144 187.529 279.638C187.448 279.77 187.382 279.91 187.329 280.059C187.573 280.115 187.851 280.005 188.161 279.728C188.276 279.615 188.366 279.499 188.43 279.381C188.495 279.255 188.521 279.154 188.507 279.079ZM192.631 282.435C192.565 282.597 192.494 282.738 192.416 282.858C192.339 282.979 192.231 283.088 192.092 283.186C191.953 283.284 191.79 283.371 191.605 283.448C191.419 283.532 191.244 283.586 191.081 283.609C190.707 283.649 190.527 283.521 190.543 283.225C190.527 283.143 190.481 283.09 190.403 283.065C190.332 283.05 190.267 283.023 190.207 282.984C190.047 282.895 190.02 282.695 190.126 282.384C190.3 281.96 190.496 281.446 190.713 280.842C190.932 280.23 191.2 279.562 191.519 278.84C192.278 277.087 193.152 275.527 194.143 274.161C194.207 274.095 194.28 274.011 194.364 273.907C194.448 273.795 194.551 273.698 194.673 273.614C194.978 273.389 195.327 273.366 195.718 273.545C195.699 273.647 195.713 273.745 195.759 273.839C195.806 273.924 195.861 274.015 195.923 274.11C196.084 274.336 196.147 274.532 196.114 274.697C195.057 276.604 194.058 278.754 193.118 281.147C193.008 281.425 192.918 281.669 192.847 281.879C192.776 282.088 192.704 282.274 192.631 282.435ZM196.138 282.81C196.072 282.972 196.001 283.113 195.924 283.234C195.846 283.354 195.738 283.463 195.599 283.561C195.46 283.659 195.298 283.746 195.112 283.823C194.926 283.907 194.752 283.961 194.588 283.984C194.214 284.024 194.035 283.897 194.05 283.6C194.035 283.518 193.988 283.465 193.91 283.441C193.84 283.425 193.774 283.398 193.714 283.359C193.554 283.27 193.528 283.07 193.633 282.759C193.807 282.335 194.003 281.821 194.221 281.217C194.439 280.605 194.707 279.938 195.026 279.215C195.785 277.462 196.66 275.902 197.651 274.536C197.714 274.47 197.788 274.386 197.871 274.282C197.955 274.17 198.058 274.073 198.18 273.989C198.486 273.765 198.834 273.741 199.225 273.92C199.206 274.023 199.22 274.121 199.266 274.214C199.313 274.3 199.368 274.39 199.43 274.485C199.591 274.711 199.655 274.907 199.621 275.073C198.564 276.979 197.566 279.129 196.626 281.523C196.516 281.801 196.425 282.044 196.354 282.254C196.284 282.464 196.212 282.649 196.138 282.81ZM199.657 278.075C199.852 277.965 200.079 277.958 200.339 278.056C200.39 278.07 200.441 278.08 200.493 278.086C200.724 277.718 201.073 277.551 201.54 277.583C201.662 277.587 201.832 277.584 202.051 277.572C202.27 277.561 202.528 277.597 202.824 277.681C203.129 277.766 203.39 277.886 203.609 278.04C204.088 278.37 204.352 278.799 204.4 279.327C204.525 280.108 204.407 280.932 204.044 281.799C203.653 282.76 203.086 283.501 202.342 284.023C202.002 284.265 201.656 284.403 201.304 284.435C200.951 284.476 200.636 284.485 200.359 284.465C200.083 284.444 199.828 284.416 199.597 284.383C199.373 284.359 199.155 284.314 198.944 284.248C198.489 284.103 198.129 283.842 197.864 283.465C197.553 283.04 197.466 282.421 197.606 281.607C197.718 280.887 197.976 280.178 198.382 279.481C198.798 278.776 199.223 278.307 199.657 278.075ZM201.654 280.916C201.431 280.962 201.226 280.971 201.037 280.942C200.932 281.026 200.835 281.12 200.745 281.224C200.665 281.32 200.56 281.409 200.429 281.491C200.299 281.564 200.235 281.592 200.237 281.575C200.068 281.766 199.925 281.969 199.806 282.183C199.688 282.388 199.665 282.608 199.735 282.842C200.076 282.913 200.332 282.932 200.501 282.898C200.67 282.864 200.831 282.781 200.985 282.649C201.147 282.518 201.278 282.358 201.376 282.168C201.571 281.814 201.664 281.397 201.654 280.916ZM216.413 279.508C217.665 276.76 218.448 275.403 218.764 275.437C218.801 275.441 218.842 275.45 218.888 275.464C219.035 275.49 219.209 275.447 219.408 275.337C219.671 275.159 219.967 275.031 220.294 274.953C220.631 274.877 220.951 274.869 221.254 274.929C221.962 275.071 222.372 275.495 222.484 276.201L222.479 276.243C222.419 276.368 222.361 276.47 222.306 276.548L222.361 276.554C222.099 276.817 221.836 277.169 221.573 277.61C221.31 278.042 221.11 278.382 220.971 278.63C220.833 278.869 220.64 279.172 220.395 279.54C220.149 279.908 219.861 280.36 219.531 280.898C219.211 281.436 218.877 281.968 218.53 282.494C217.7 283.757 216.906 284.733 216.147 285.421C215.759 285.802 215.273 285.957 214.689 285.885C214.44 285.849 214.205 285.758 213.986 285.613C213.767 285.467 213.606 285.262 213.503 284.998L213.304 284.089C213.173 284.179 213.02 284.294 212.845 284.435C212.67 284.575 212.486 284.72 212.292 284.868C211.842 285.214 211.504 285.385 211.28 285.379C211.055 285.374 210.865 285.354 210.709 285.318C210.552 285.292 210.407 285.244 210.274 285.173C209.971 285.019 209.792 284.765 209.736 284.412C209.748 282.808 210.044 280.789 210.623 278.354C210.771 277.759 210.909 277.173 211.037 276.596C211.283 275.787 211.643 275.224 212.118 274.909C212.523 274.633 212.895 274.579 213.234 274.747C213.386 274.819 213.496 274.925 213.566 275.064C213.636 275.203 213.647 275.364 213.599 275.546C213.557 276.114 213.507 276.536 213.449 276.812C213.362 277.281 213.311 277.627 213.296 277.851C213.281 278.075 213.257 278.26 213.222 278.406C213.198 278.545 213.175 278.678 213.151 278.807C213.139 278.928 213.132 279.03 213.133 279.115C213.143 279.191 213.179 279.209 213.24 279.169C213.502 278.737 213.718 278.427 213.888 278.238C214.058 278.05 214.239 277.853 214.43 277.649C214.715 277.444 214.951 277.381 215.14 277.457C215.24 277.487 215.343 277.535 215.449 277.603C215.555 277.661 215.699 277.719 215.881 277.776C215.99 277.891 216.057 278.01 216.082 278.135C216.106 278.166 216.131 278.197 216.156 278.228C216.182 278.249 216.198 278.279 216.203 278.317C216.219 278.347 216.234 278.419 216.25 278.533C216.275 278.649 216.3 278.773 216.323 278.907C216.347 279.032 216.367 279.156 216.382 279.279C216.397 279.394 216.408 279.47 216.413 279.508ZM216.124 285.377C216.122 285.395 216.121 285.4 216.122 285.391C216.133 285.373 216.14 285.355 216.142 285.336L216.124 285.377ZM222.528 279.662C222.753 279.536 223.015 279.529 223.315 279.641C223.373 279.657 223.432 279.669 223.492 279.675C223.759 279.251 224.161 279.058 224.7 279.095C224.841 279.1 225.037 279.096 225.29 279.083C225.543 279.07 225.84 279.112 226.182 279.209C226.533 279.307 226.835 279.444 227.088 279.622C227.641 280.003 227.945 280.498 228 281.108C228.145 282.008 228.008 282.959 227.589 283.96C227.139 285.069 226.484 285.924 225.625 286.526C225.233 286.806 224.834 286.964 224.428 287.001C224.021 287.048 223.657 287.06 223.338 287.036C223.019 287.011 222.726 286.98 222.458 286.941C222.2 286.914 221.949 286.862 221.705 286.785C221.18 286.619 220.765 286.318 220.459 285.883C220.1 285.392 220 284.677 220.161 283.739C220.29 282.908 220.589 282.09 221.057 281.285C221.536 280.472 222.026 279.931 222.528 279.662ZM224.832 282.941C224.575 282.994 224.338 283.004 224.12 282.971C223.999 283.068 223.887 283.177 223.783 283.297C223.691 283.407 223.569 283.51 223.419 283.605C223.269 283.689 223.195 283.721 223.197 283.702C223.002 283.922 222.837 284.156 222.7 284.403C222.564 284.64 222.536 284.893 222.618 285.163C223.012 285.246 223.306 285.267 223.501 285.228C223.697 285.188 223.883 285.092 224.06 284.94C224.247 284.789 224.398 284.604 224.512 284.385C224.736 283.977 224.843 283.496 224.832 282.941ZM231.561 286.286C231.451 286.556 231.332 286.791 231.204 286.992C231.075 287.193 230.894 287.375 230.662 287.537C230.43 287.7 230.16 287.846 229.851 287.974C229.541 288.115 229.25 288.204 228.978 288.242C228.354 288.31 228.055 288.097 228.081 287.603C228.055 287.466 227.978 287.378 227.848 287.337C227.73 287.311 227.621 287.266 227.52 287.201C227.255 287.052 227.21 286.719 227.386 286.201C227.676 285.495 228.002 284.638 228.365 283.631C228.729 282.611 229.176 281.498 229.707 280.295C230.972 277.373 232.43 274.773 234.082 272.496C234.188 272.387 234.31 272.245 234.449 272.073C234.59 271.886 234.761 271.724 234.964 271.585C235.473 271.21 236.054 271.171 236.706 271.469C236.674 271.64 236.697 271.803 236.774 271.959C236.853 272.102 236.944 272.252 237.048 272.411C237.316 272.788 237.422 273.115 237.365 273.39C235.604 276.568 233.94 280.151 232.374 284.14C232.19 284.603 232.039 285.01 231.921 285.359C231.804 285.708 231.683 286.017 231.561 286.286ZM236.964 277.656C237.248 277.107 237.604 276.711 238.033 276.467C238.479 276.209 238.888 276.067 239.261 276.043C239.651 276.004 239.957 276.077 240.179 276.262C240.416 276.448 240.477 276.704 240.362 277.03C240.697 276.76 241.164 276.528 241.764 276.335C242.364 276.142 242.836 276.015 243.18 275.955C243.525 275.896 243.816 275.879 244.055 275.904C244.576 275.992 244.697 276.295 244.416 276.812C244.682 276.888 244.862 277.085 244.957 277.401C245.052 277.716 245.032 278.052 244.897 278.408C244.763 278.764 244.51 279.099 244.138 279.413C243.767 279.727 243.288 279.917 242.701 279.983C242.131 280.051 241.63 280.295 241.199 280.716C240.785 281.122 240.4 281.644 240.042 282.281C239.444 283.36 238.843 284.913 238.24 286.94C238.033 287.674 237.448 288.247 236.487 288.659C235.575 289.061 234.772 289.12 234.079 288.836C233.291 288.527 232.997 287.892 233.196 286.932C233.301 286.251 233.605 285.366 234.108 284.277C234.612 283.173 234.998 282.345 235.266 281.795C235.536 281.228 235.727 280.798 235.839 280.504L236.964 277.656ZM248.799 279.043C249.43 278.708 250.119 278.661 250.866 278.902C251.611 279.158 252.004 279.538 252.047 280.042C252.207 279.753 252.335 279.461 252.431 279.166C253.492 276.013 254.543 273.631 255.584 272.021C255.911 271.524 256.229 271.188 256.537 271.012C257.336 270.615 258.13 270.635 258.92 271.074C259.239 271.253 259.48 271.48 259.644 271.755C259.809 272.014 259.857 272.244 259.787 272.446C259.733 272.649 259.731 272.818 259.781 272.952C259.847 273.088 259.921 273.225 260.003 273.362C260.225 273.692 260.3 273.965 260.229 274.183C259.776 275.406 259.207 276.664 258.521 277.959C257.853 279.239 257.17 280.517 256.47 281.794C255.77 283.071 255.12 284.337 254.519 285.592C253.935 286.833 253.51 288.027 253.243 289.173C253.21 289.475 253.054 289.732 252.774 289.943C252.492 290.171 252.153 290.335 251.756 290.438C250.815 290.659 249.978 290.505 249.246 289.976L249.262 289.833C249.108 289.768 248.992 289.724 248.914 289.699C248.852 289.677 248.808 289.64 248.781 289.589C248.742 289.504 248.728 289.253 248.741 288.836C248.37 289.295 248.027 289.564 247.713 289.643C247.399 289.722 247.083 289.745 246.765 289.711C245.221 289.546 244.153 289.15 243.561 288.523C243.039 287.985 242.852 287.176 243 286.098C243.161 284.892 243.751 283.587 244.77 282.184C245.938 280.587 247.281 279.54 248.799 279.043ZM247.938 286.867C248.428 287.097 248.791 287.015 249.026 286.622C249.16 286.427 249.292 286.167 249.423 285.844C249.57 285.521 249.747 285.146 249.954 284.718L250.1 284.251C249.742 283.987 249.396 283.918 249.061 284.043C248.741 284.17 248.468 284.39 248.242 284.703C248.015 285.017 247.864 285.379 247.788 285.789C247.712 286.2 247.762 286.559 247.938 286.867Z" fill="white"/>
<path d="M61.2897 222.57C60.3383 220.763 58.8724 219.768 57.5721 218.251C55.7735 216.152 53.9328 213.882 52.4008 211.584C48.9658 206.431 45.8476 200.766 45.4226 194.512C45.138 190.326 44.223 183.656 46.5025 179.787C47.5505 178.009 48.2796 176.073 49.2855 174.263C50.1911 172.633 51.2897 171.127 52.11 169.486C52.4363 168.833 53.0654 167.839 53.0654 169.112" stroke="#B5B5B5" stroke-linecap="square"/>
<path d="M64.2805 218.458C68.7306 213.485 69.9811 206.353 72.3387 200.39C72.7144 199.439 72.8246 197.43 72.8787 196.402C73.0181 193.753 72.2103 191.423 71.5495 188.884C70.7836 185.941 68.9142 183.34 68.3096 180.41C67.923 178.537 66.5777 177.112 65.6305 175.509C64.9977 174.438 64.8976 173.126 64.1975 172.103C63.3858 170.917 62.2218 169.173 60.916 168.448C60.1015 167.995 59.6277 167.16 59.0469 166.869" stroke="#B5B5B5" stroke-linecap="square"/>
<path d="M60.5418 214.72C60.5418 203.232 59.7942 191.841 59.7942 180.369C59.7942 176.718 59.0465 173.127 59.0465 169.486C59.0465 167.923 58.2988 166.584 58.2988 165" stroke="#B5B5B5" stroke-linecap="square"/>
<path d="M53.4395 207.243C53.4395 206.095 55.2533 205.066 56.2432 204.626C57.5012 204.067 57.3549 203.743 58.1331 202.965C58.4332 202.665 59.4969 202.295 59.6077 202.383C60.7745 203.317 62.9733 205.21 63.616 206.496C64.2717 207.807 65.2165 209.58 66.5236 210.234" stroke="#B5B5B5" stroke-linecap="square"/>
<path d="M50.8223 200.14C50.9045 199.318 51.6281 197.997 52.1515 197.378C52.9752 196.405 53.575 195.054 54.5606 194.242C55.8288 193.198 56.9779 190.707 58.2989 190.047" stroke="#B5B5B5" stroke-linecap="square"/>
<path d="M59.4209 183.318C59.86 185.733 62.6041 187.857 63.6992 190.047C64.2078 191.064 64.8541 192.577 65.7761 193.038" stroke="#B5B5B5" stroke-linecap="square"/>
<path d="M48.9717 186.738C52.0174 183.692 53.1589 179.037 57.196 177.018" stroke="#B5B5B5" stroke-linecap="square"/>
<path d="M49.8215 101.179C51.8432 101.471 53.5099 100.871 55.5014 100.71C58.2563 100.489 61.1749 100.334 63.9345 100.445C70.1219 100.695 76.5383 101.502 81.8476 104.834C85.4016 107.065 91.3358 110.245 93.1255 114.363C93.9483 116.256 95.0855 117.984 95.959 119.862C96.7455 121.552 97.3182 123.326 98.1633 124.954C98.4994 125.602 98.9338 126.695 97.9042 125.947" stroke="#B5B5B5" stroke-linecap="square"/>
<path d="M51.3904 106.015C52.7985 112.539 57.8331 117.743 61.2718 123.155C61.8197 124.017 63.3808 125.288 64.1804 125.936C66.2415 127.606 68.6017 128.322 71.044 129.279C73.8748 130.39 77.078 130.406 79.8036 131.639C81.5467 132.427 83.49 132.177 85.3437 132.352C86.5819 132.47 87.7023 133.16 88.9416 133.195C90.3783 133.236 92.4731 133.319 93.8275 132.689C94.6723 132.296 95.6268 132.404 96.2031 132.105" stroke="#B5B5B5" stroke-linecap="square"/>
<path d="M56.6122 105.188C65.9061 111.941 75.5613 118.031 84.8423 124.774C87.7958 126.92 91.1402 128.426 94.0861 130.566C95.3505 131.485 96.8734 131.667 98.1548 132.598" stroke="#B5B5B5" stroke-linecap="square"/>
<path d="M66.8358 103.837C67.7647 104.511 67.5308 106.584 67.3049 107.643C67.0178 108.989 67.366 109.062 67.5382 110.149C67.6045 110.568 67.2787 111.646 67.1419 111.683C65.7009 112.079 62.8769 112.745 61.459 112.509C60.0128 112.269 58.0227 111.991 56.7256 112.664" stroke="#B5B5B5" stroke-linecap="square"/>
<path d="M74.1203 105.895C74.7372 106.444 75.381 107.807 75.5737 108.593C75.8771 109.832 76.6174 111.111 76.6948 112.386C76.7943 114.026 78.1336 116.419 77.8915 117.876" stroke="#B5B5B5" stroke-linecap="square"/>
<path d="M82.6758 122.739C80.464 121.674 77.1328 122.646 74.7172 122.245C73.5954 122.058 71.9918 121.692 71.0769 122.167" stroke="#B5B5B5" stroke-linecap="square"/>
<path d="M86.0512 112.275C86.725 116.529 89.8203 120.189 89.0804 124.641" stroke="#B5B5B5" stroke-linecap="square"/>
<path d="M270.275 163.29C270.997 162.101 271.063 160.849 271.493 159.533C272.087 157.713 272.767 155.81 273.571 154.094C275.375 150.247 277.59 146.434 281.095 144.138C283.442 142.602 287.018 139.861 290.08 140.053C291.488 140.142 292.876 139.977 294.287 140.028C295.558 140.075 296.825 140.283 298.072 140.272C298.568 140.268 299.37 140.345 298.626 140.757" stroke="#B5B5B5" stroke-opacity="0.67" stroke-linecap="square"/>
<path d="M273.73 163.855C278.201 165.066 282.808 163.549 287.122 163.112C287.809 163.042 289.023 162.461 289.642 162.163C291.239 161.393 292.317 160.126 293.569 158.884C295.019 157.445 295.882 155.417 297.382 154.084C298.341 153.232 298.701 151.918 299.305 150.798C299.708 150.049 300.44 149.561 300.791 148.785C301.199 147.886 301.809 146.583 301.774 145.52C301.752 144.857 302.074 144.286 302.04 143.824" stroke="#B5B5B5" stroke-opacity="0.67" stroke-linecap="square"/>
<path d="M274.6 160.273C281.314 156.552 287.709 152.387 294.413 148.671C296.547 147.488 298.382 145.851 300.51 144.671C301.424 144.165 301.944 143.257 302.869 142.744" stroke="#B5B5B5" stroke-opacity="0.67" stroke-linecap="square"/>
<path d="M276.473 153.347C277.144 152.975 278.383 153.792 278.988 154.277C279.757 154.894 279.895 154.696 280.624 154.937C280.904 155.03 281.495 155.585 281.482 155.684C281.346 156.726 281.013 158.734 280.488 159.558C279.952 160.399 279.247 161.572 279.325 162.613" stroke="#B5B5B5" stroke-opacity="0.67" stroke-linecap="square"/>
<path d="M279.704 149.386C280.214 149.172 281.24 149.203 281.786 149.334C282.644 149.541 283.645 149.484 284.465 149.846C285.522 150.312 287.381 150.234 288.231 150.858" stroke="#B5B5B5" stroke-opacity="0.67" stroke-linecap="square"/>
<path d="M292.558 149.389C291.301 150.45 291.025 152.878 290.129 154.282C289.714 154.934 289.057 155.834 289.112 156.568" stroke="#B5B5B5" stroke-opacity="0.67" stroke-linecap="square"/>
<path d="M286.887 143.871C289.737 144.815 292.859 144.031 295.458 145.938" stroke="#B5B5B5" stroke-opacity="0.67" stroke-linecap="square"/>
<path d="M235.406 101.199C235.585 102.578 236.316 103.597 236.802 104.893C237.475 106.686 238.133 108.596 238.577 110.439C239.572 114.57 240.224 118.931 238.92 122.913C238.048 125.579 236.967 129.954 234.456 131.716C233.301 132.526 232.321 133.522 231.186 134.363C230.165 135.121 229.045 135.749 228.079 136.537C227.694 136.85 227.02 137.291 227.343 136.505" stroke="#B5B5B5" stroke-linecap="square"/>
<path d="M232.356 102.916C228.108 104.763 225.458 108.826 222.362 111.862C221.869 112.345 221.284 113.557 220.987 114.177C220.221 115.776 220.171 117.439 219.969 119.19C219.735 121.22 220.328 123.343 219.989 125.32C219.773 126.585 220.313 127.836 220.541 129.088C220.693 129.924 220.427 130.763 220.637 131.588C220.88 132.545 221.218 133.943 221.909 134.752C222.34 135.256 222.446 135.903 222.762 136.242" stroke="#B5B5B5" stroke-linecap="square"/>
<path d="M233.914 106.257C230.996 113.357 228.604 120.603 225.69 127.693C224.762 129.949 224.352 132.375 223.427 134.625C223.03 135.591 223.191 136.625 222.789 137.604" stroke="#B5B5B5" stroke-linecap="square"/>
<path d="M236.778 112.835C236.486 113.545 235.008 113.681 234.233 113.68C233.247 113.679 233.263 113.919 232.543 114.186C232.266 114.288 231.458 114.224 231.407 114.139C230.861 113.24 229.868 111.464 229.763 110.492C229.656 109.501 229.473 108.145 228.763 107.381" stroke="#B5B5B5" stroke-linecap="square"/>
<path d="M236.729 117.946C236.465 118.432 235.644 119.049 235.136 119.287C234.336 119.662 233.591 120.331 232.724 120.561C231.608 120.857 230.205 122.08 229.151 122.124" stroke="#B5B5B5" stroke-linecap="square"/>
<path d="M226.689 125.973C227.008 124.36 225.708 122.291 225.529 120.635C225.447 119.867 225.398 118.754 224.896 118.215" stroke="#B5B5B5" stroke-linecap="square"/>
<path d="M234.566 126.74C231.749 127.783 229.801 130.345 226.581 130.48" stroke="#B5B5B5" stroke-linecap="square"/>
<path d="M284.406 376.199C284.585 377.578 285.316 378.597 285.802 379.893C286.475 381.686 287.133 383.596 287.577 385.439C288.572 389.57 289.224 393.931 287.92 397.913C287.048 400.579 285.967 404.954 283.456 406.716C282.301 407.526 281.321 408.522 280.186 409.363C279.165 410.121 278.045 410.749 277.079 411.537C276.694 411.85 276.02 412.291 276.343 411.505" stroke="#B5B5B5" stroke-linecap="square"/>
<path d="M281.356 377.916C277.108 379.763 274.458 383.826 271.362 386.862C270.869 387.345 270.284 388.557 269.987 389.177C269.221 390.776 269.171 392.439 268.969 394.19C268.735 396.22 269.328 398.343 268.989 400.32C268.773 401.585 269.313 402.836 269.541 404.088C269.693 404.924 269.427 405.763 269.637 406.588C269.88 407.545 270.218 408.943 270.909 409.752C271.34 410.256 271.446 410.903 271.762 411.242" stroke="#B5B5B5" stroke-linecap="square"/>
<path d="M282.914 381.257C279.996 388.357 277.604 395.603 274.69 402.693C273.762 404.949 273.352 407.375 272.427 409.625C272.03 410.591 272.191 411.625 271.789 412.604" stroke="#B5B5B5" stroke-linecap="square"/>
<path d="M285.778 387.835C285.486 388.545 284.008 388.681 283.233 388.68C282.247 388.679 282.263 388.919 281.543 389.186C281.266 389.289 280.458 389.224 280.407 389.139C279.861 388.24 278.868 386.464 278.763 385.492C278.656 384.501 278.473 383.145 277.763 382.381" stroke="#B5B5B5" stroke-linecap="square"/>
<path d="M285.729 392.946C285.465 393.432 284.644 394.049 284.136 394.287C283.336 394.662 282.591 395.331 281.724 395.561C280.608 395.857 279.205 397.08 278.151 397.124" stroke="#B5B5B5" stroke-linecap="square"/>
<path d="M275.689 400.973C276.008 399.36 274.708 397.291 274.529 395.635C274.447 394.867 274.398 393.754 273.896 393.215" stroke="#B5B5B5" stroke-linecap="square"/>
<path d="M283.566 401.74C280.749 402.783 278.801 405.345 275.581 405.48" stroke="#B5B5B5" stroke-linecap="square"/>
<path d="M24.5102 122.963C24.6274 123.791 25.0796 124.406 25.3845 125.186C25.8062 126.265 26.2191 127.414 26.5009 128.522C27.1325 131.005 27.556 133.623 26.782 136.004C26.2639 137.597 25.6284 140.215 24.1035 141.257C23.4025 141.736 22.8088 142.328 22.1202 142.826C21.5003 143.274 20.8197 143.645 20.2332 144.111C20 144.297 19.5903 144.558 19.7834 144.088" stroke="#B5B5B5" stroke-opacity="0.39" stroke-linecap="square"/>
<path d="M22.6552 123.975C20.0695 125.058 18.4729 127.479 16.598 129.282C16.2993 129.569 15.949 130.293 15.7708 130.663C15.3115 131.617 15.2904 132.614 15.1771 133.663C15.0457 134.879 15.4203 136.155 15.2246 137.339C15.0994 138.096 15.4367 138.85 15.5833 139.602C15.6812 140.104 15.5234 140.605 15.6562 141.101C15.8102 141.676 16.0246 142.517 16.4518 143.006C16.7183 143.31 16.7865 143.699 16.9814 143.904" stroke="#B5B5B5" stroke-opacity="0.39" stroke-linecap="square"/>
<path d="M23.6266 125.987C21.8836 130.228 20.4629 134.56 18.7224 138.794C18.1685 140.142 17.9313 141.594 17.3788 142.938C17.1417 143.515 17.2462 144.136 17.0059 144.721" stroke="#B5B5B5" stroke-opacity="0.39" stroke-linecap="square"/>
<path d="M25.4147 129.948C25.2405 130.372 24.338 130.445 23.864 130.44C23.2615 130.434 23.2725 130.578 22.8342 130.734C22.6652 130.794 22.1714 130.751 22.1392 130.699C21.8008 130.157 21.1833 129.087 21.1138 128.503C21.043 127.908 20.9233 127.094 20.4846 126.632" stroke="#B5B5B5" stroke-opacity="0.39" stroke-linecap="square"/>
<path d="M25.4138 133.013C25.2552 133.303 24.7569 133.668 24.4477 133.808C23.9611 134.028 23.5093 134.425 22.9806 134.558C22.3003 134.729 21.4497 135.454 20.8059 135.475" stroke="#B5B5B5" stroke-opacity="0.39" stroke-linecap="square"/>
<path d="M19.3237 137.769C19.5095 136.803 18.7026 135.555 18.5843 134.561C18.5293 134.1 18.4929 133.432 18.1834 133.106" stroke="#B5B5B5" stroke-opacity="0.39" stroke-linecap="square"/>
<path d="M24.1422 138.274C22.4269 138.883 21.2508 140.408 19.2834 140.471" stroke="#B5B5B5" stroke-opacity="0.39" stroke-linecap="square"/>
<path d="M210.216 132.156C209.518 132.616 209.156 133.288 208.581 133.897C207.787 134.74 206.925 135.606 206.044 136.334C204.071 137.968 201.885 139.472 199.403 139.791C197.741 140.005 195.103 140.551 193.508 139.619C192.775 139.19 191.987 138.907 191.242 138.498C190.571 138.13 189.945 137.673 189.272 137.343C189.004 137.211 188.594 136.953 189.101 136.926" stroke="#B5B5B5" stroke-opacity="0.39" stroke-linecap="square"/>
<path d="M208.508 130.913C206.422 129.04 203.55 128.633 201.118 127.71C200.731 127.563 199.927 127.556 199.516 127.554C198.457 127.547 197.547 127.955 196.551 128.301C195.396 128.703 194.403 129.588 193.249 129.918C192.511 130.128 191.975 130.756 191.358 131.21C190.946 131.514 190.425 131.586 190.033 131.918C189.58 132.303 188.912 132.857 188.653 133.452C188.492 133.823 188.17 134.051 188.067 134.316" stroke="#B5B5B5" stroke-opacity="0.39" stroke-linecap="square"/>
<path d="M207.105 132.652C202.526 132.892 198.003 133.462 193.431 133.702C191.976 133.778 190.562 134.185 189.11 134.261C188.488 134.294 187.971 134.654 187.34 134.687" stroke="#B5B5B5" stroke-opacity="0.39" stroke-linecap="square"/>
<path d="M204.29 135.964C203.832 135.987 203.38 135.203 203.182 134.773C202.93 134.225 202.804 134.297 202.475 133.968C202.349 133.841 202.177 133.376 202.209 133.325C202.554 132.787 203.258 131.77 203.755 131.458C204.262 131.139 204.947 130.683 205.177 130.088" stroke="#B5B5B5" stroke-opacity="0.39" stroke-linecap="square"/>
<path d="M201.52 137.274C201.19 137.255 200.647 136.961 200.388 136.742C199.981 136.396 199.429 136.158 199.082 135.737C198.636 135.195 197.617 134.737 197.323 134.164" stroke="#B5B5B5" stroke-opacity="0.39" stroke-linecap="square"/>
<path d="M194.615 133.806C195.567 133.56 196.35 132.297 197.197 131.765C197.591 131.517 198.179 131.199 198.341 130.779" stroke="#B5B5B5" stroke-opacity="0.39" stroke-linecap="square"/>
<path d="M196.221 138.377C194.936 137.087 193.054 136.677 192.156 134.926" stroke="#B5B5B5" stroke-opacity="0.39" stroke-linecap="square"/>
<path d="M186.216 381.156C185.518 381.616 185.156 382.288 184.581 382.897C183.787 383.74 182.925 384.606 182.044 385.334C180.071 386.968 177.885 388.472 175.403 388.791C173.741 389.005 171.103 389.551 169.508 388.619C168.775 388.19 167.987 387.907 167.242 387.498C166.571 387.13 165.945 386.673 165.272 386.343C165.004 386.211 164.594 385.953 165.101 385.926" stroke="#B5B5B5" stroke-opacity="0.39" stroke-linecap="square"/>
<path d="M184.508 379.913C182.422 378.04 179.55 377.633 177.118 376.71C176.731 376.563 175.927 376.556 175.516 376.554C174.457 376.547 173.547 376.955 172.551 377.301C171.396 377.703 170.403 378.588 169.249 378.918C168.511 379.128 167.975 379.756 167.358 380.21C166.946 380.514 166.425 380.586 166.033 380.918C165.58 381.303 164.912 381.857 164.653 382.452C164.492 382.823 164.17 383.051 164.067 383.316" stroke="#B5B5B5" stroke-opacity="0.39" stroke-linecap="square"/>
<path d="M183.105 381.652C178.526 381.892 174.003 382.462 169.431 382.701C167.976 382.778 166.562 383.185 165.11 383.261C164.488 383.294 163.971 383.654 163.34 383.687" stroke="#B5B5B5" stroke-opacity="0.39" stroke-linecap="square"/>
<path d="M180.29 384.963C179.832 384.987 179.38 384.203 179.182 383.773C178.93 383.225 178.804 383.297 178.475 382.968C178.349 382.841 178.177 382.376 178.209 382.325C178.554 381.787 179.258 380.77 179.755 380.458C180.262 380.139 180.947 379.683 181.177 379.088" stroke="#B5B5B5" stroke-opacity="0.39" stroke-linecap="square"/>
<path d="M177.52 386.274C177.19 386.255 176.647 385.961 176.388 385.742C175.981 385.396 175.429 385.158 175.082 384.737C174.636 384.195 173.617 383.737 173.323 383.164" stroke="#B5B5B5" stroke-opacity="0.39" stroke-linecap="square"/>
<path d="M170.615 382.806C171.567 382.56 172.35 381.297 173.197 380.765C173.591 380.517 174.179 380.199 174.341 379.779" stroke="#B5B5B5" stroke-opacity="0.39" stroke-linecap="square"/>
<path d="M172.221 387.377C170.936 386.087 169.054 385.677 168.156 383.926" stroke="#B5B5B5" stroke-opacity="0.39" stroke-linecap="square"/>
<path d="M231.086 194.302C230.285 194.063 229.537 194.217 228.701 194.169C227.544 194.102 226.328 193.998 225.204 193.792C222.683 193.33 220.127 192.622 218.286 190.926C217.054 189.79 214.941 188.121 214.629 186.3C214.486 185.463 214.197 184.677 214.031 183.843C213.882 183.092 213.83 182.319 213.65 181.592C213.578 181.302 213.513 180.821 213.859 181.193" stroke="#B5B5B5" stroke-opacity="0.39" stroke-linecap="square"/>
<path d="M230.94 192.194C231.034 189.392 229.5 186.931 228.644 184.475C228.507 184.084 227.996 183.463 227.734 183.147C227.058 182.332 226.161 181.896 225.255 181.356C224.205 180.729 222.889 180.537 221.894 179.865C221.259 179.436 220.433 179.428 219.689 179.248C219.191 179.127 218.802 178.774 218.295 178.688C217.708 178.588 216.855 178.432 216.233 178.617C215.844 178.732 215.463 178.632 215.195 178.723" stroke="#B5B5B5" stroke-opacity="0.39" stroke-linecap="square"/>
<path d="M228.706 192.237C225.579 188.884 222.235 185.786 219.113 182.437C218.119 181.371 216.898 180.55 215.907 179.487C215.482 179.031 214.874 178.867 214.443 178.404" stroke="#B5B5B5" stroke-opacity="0.39" stroke-linecap="square"/>
<path d="M224.36 192.21C224.048 191.875 224.358 191.024 224.56 190.595C224.817 190.05 224.681 190 224.723 189.537C224.739 189.358 224.984 188.927 225.044 188.92C225.678 188.838 226.909 188.724 227.468 188.904C228.038 189.088 228.828 189.319 229.431 189.113" stroke="#B5B5B5" stroke-opacity="0.39" stroke-linecap="square"/>
<path d="M221.576 190.93C221.379 190.665 221.254 190.06 221.256 189.721C221.259 189.187 221.087 188.61 221.186 188.074C221.315 187.385 221.011 186.309 221.261 185.716" stroke="#B5B5B5" stroke-opacity="0.39" stroke-linecap="square"/>
<path d="M219.794 183.411C220.594 183.983 222.065 183.77 223.018 184.077C223.46 184.22 224.082 184.465 224.507 184.32" stroke="#B5B5B5" stroke-opacity="0.39" stroke-linecap="square"/>
<path d="M217.325 187.58C217.487 185.767 216.591 184.061 217.355 182.247" stroke="#B5B5B5" stroke-opacity="0.39" stroke-linecap="square"/>
<path d="M206.97 443.326C206.169 443.087 205.421 443.241 204.585 443.193C203.429 443.126 202.212 443.022 201.088 442.816C198.568 442.354 196.011 441.646 194.17 439.95C192.938 438.814 190.825 437.145 190.514 435.324C190.371 434.487 190.081 433.701 189.915 432.867C189.766 432.116 189.714 431.343 189.534 430.616C189.463 430.326 189.397 429.845 189.743 430.217" stroke="#B5B5B5" stroke-opacity="0.39" stroke-linecap="square"/>
<path d="M206.824 441.218C206.919 438.416 205.384 435.955 204.528 433.499C204.392 433.107 203.88 432.487 203.618 432.171C202.943 431.355 202.045 430.92 201.139 430.38C200.089 429.753 198.773 429.561 197.779 428.889C197.143 428.46 196.317 428.452 195.573 428.271C195.076 428.151 194.686 427.798 194.18 427.712C193.593 427.612 192.739 427.456 192.117 427.641C191.729 427.756 191.347 427.656 191.079 427.747" stroke="#B5B5B5" stroke-opacity="0.39" stroke-linecap="square"/>
<path d="M204.591 441.261C201.464 437.908 198.12 434.809 194.997 431.461C194.003 430.395 192.783 429.574 191.792 428.511C191.366 428.055 190.758 427.891 190.327 427.428" stroke="#B5B5B5" stroke-opacity="0.39" stroke-linecap="square"/>
<path d="M200.244 441.234C199.932 440.898 200.242 440.048 200.444 439.619C200.701 439.074 200.566 439.024 200.607 438.561C200.623 438.382 200.868 437.951 200.929 437.944C201.562 437.862 202.793 437.748 203.352 437.928C203.922 438.112 204.712 438.343 205.316 438.137" stroke="#B5B5B5" stroke-opacity="0.39" stroke-linecap="square"/>
<path d="M197.46 439.954C197.263 439.689 197.139 439.084 197.14 438.745C197.143 438.211 196.971 437.634 197.071 437.098C197.199 436.409 196.895 435.333 197.145 434.74" stroke="#B5B5B5" stroke-opacity="0.39" stroke-linecap="square"/>
<path d="M195.678 432.435C196.478 433.007 197.949 432.794 198.902 433.101C199.344 433.244 199.966 433.489 200.392 433.344" stroke="#B5B5B5" stroke-opacity="0.39" stroke-linecap="square"/>
<path d="M193.209 436.604C193.371 434.791 192.475 433.085 193.239 431.271" stroke="#B5B5B5" stroke-opacity="0.39" stroke-linecap="square"/>
<path d="M436.97 225.326C436.169 225.087 435.421 225.241 434.585 225.193C433.429 225.126 432.212 225.022 431.088 224.816C428.568 224.354 426.011 223.646 424.17 221.95C422.938 220.814 420.825 219.145 420.514 217.324C420.371 216.487 420.081 215.701 419.915 214.867C419.766 214.116 419.714 213.343 419.534 212.616C419.463 212.326 419.397 211.845 419.743 212.217" stroke="#B5B5B5" stroke-opacity="0.39" stroke-linecap="square"/>
<path d="M436.824 223.218C436.919 220.416 435.384 217.955 434.528 215.499C434.392 215.107 433.88 214.487 433.618 214.171C432.943 213.355 432.045 212.92 431.139 212.38C430.089 211.753 428.773 211.561 427.779 210.889C427.143 210.46 426.317 210.452 425.573 210.271C425.076 210.151 424.686 209.798 424.18 209.712C423.593 209.612 422.739 209.456 422.117 209.641C421.729 209.756 421.347 209.656 421.079 209.747" stroke="#B5B5B5" stroke-opacity="0.39" stroke-linecap="square"/>
<path d="M434.591 223.261C431.464 219.908 428.12 216.809 424.997 213.461C424.003 212.395 422.783 211.574 421.792 210.511C421.366 210.055 420.758 209.891 420.327 209.428" stroke="#B5B5B5" stroke-opacity="0.39" stroke-linecap="square"/>
<path d="M430.244 223.234C429.932 222.898 430.242 222.048 430.444 221.619C430.701 221.074 430.566 221.024 430.607 220.561C430.623 220.382 430.868 219.951 430.929 219.944C431.562 219.862 432.793 219.748 433.352 219.928C433.922 220.112 434.712 220.343 435.316 220.137" stroke="#B5B5B5" stroke-opacity="0.39" stroke-linecap="square"/>
<path d="M427.46 221.954C427.263 221.689 427.139 221.084 427.14 220.745C427.143 220.211 426.971 219.634 427.071 219.098C427.199 218.409 426.895 217.333 427.145 216.74" stroke="#B5B5B5" stroke-opacity="0.39" stroke-linecap="square"/>
<path d="M425.678 214.435C426.478 215.007 427.949 214.794 428.902 215.101C429.344 215.244 429.966 215.489 430.392 215.344" stroke="#B5B5B5" stroke-opacity="0.39" stroke-linecap="square"/>
<path d="M423.209 218.604C423.371 216.791 422.475 215.085 423.239 213.271" stroke="#B5B5B5" stroke-opacity="0.39" stroke-linecap="square"/>
<path d="M126.334 167.635C124.982 170.677 119.888 181.353 127.055 180.598C131.809 180.098 137.055 178.135 137.055 172.777C137.055 172.017 137.385 170.377 136.899 169.751C136.624 169.398 135.87 168.363 135.504 168.2C135.047 167.996 134.925 167.49 134.453 167.29C133.929 167.068 133.32 166.807 132.839 166.507C132.132 166.065 131.24 166.224 130.425 166.224C128.839 166.224 127.67 167.02 126.616 168.074C126.163 168.527 123.253 170.891 124.641 171.585" stroke="#B5B5B5" stroke-linecap="square"/>
<path d="M124.641 172.432C122.199 170.434 119.167 169.242 116.96 166.851C116.009 165.821 115.514 164.504 114.766 163.34C113.738 161.741 113.354 157.812 113.982 156.067C114.265 155.282 114.612 154.494 115.33 154.03C115.777 153.74 116.165 153.658 116.616 153.371C120.26 151.052 126.117 153.658 127.886 157.196C128.949 159.323 128.873 161.459 128.873 163.795C128.873 164.75 128.322 168.629 129.155 169.046" stroke="#B5B5B5" stroke-linecap="square"/>
<path d="M130.002 168.482C130.222 166.278 132.433 164.227 133.733 162.557C134.447 161.638 136.107 160.299 137.338 160.299C138.392 160.299 139.387 159.735 140.504 159.735C142.779 159.735 144.399 161.357 145.771 163.121C146.95 164.637 148.16 169.761 146.507 171.413C145.127 172.793 143.91 173.53 142.134 174.281C140.661 174.905 139.154 175.266 137.604 175.676C137.125 175.803 134.898 176.656 135.645 175.535" stroke="#B5B5B5" stroke-linecap="square"/>
<path d="M122.384 174.125C120.134 175.655 118.133 177.309 115.957 178.921C114.407 180.069 114.138 183.7 113.778 185.426C113.2 188.204 113.206 191.937 115.33 194C117.509 196.117 120.303 196.978 123.261 196.978C124.433 196.978 125.899 197.213 127.055 196.916C127.356 196.838 129.041 196.456 129.155 196.257C129.445 195.751 130.202 195.354 130.346 194.878C130.882 193.111 131.492 191.286 132.196 189.58C133.655 186.046 134.798 182.639 134.798 178.764C134.798 177.501 134.945 176.404 134.234 175.316C134.013 174.979 133.78 173.903 133.387 174.689" stroke="#B5B5B5" stroke-linecap="square"/>
<path d="M135.927 179.203C136.146 180.301 137.069 181.512 137.479 182.605C137.925 183.795 138.184 184.82 138.184 186.084C138.184 187.477 139.209 188.003 140.347 188.686C142.925 190.233 145.631 190.771 148.592 190.771C150.166 190.771 150.42 190.268 151.57 189.611C152.015 189.357 152.641 188.332 153.075 187.95C154.053 187.088 155.52 185.441 156.116 184.282C156.689 183.165 156.825 181.413 157.652 180.488C158.544 179.492 158.809 178.835 159.972 178.075C161.226 177.254 162.702 177.228 164.141 177.228" stroke="#B5B5B5" stroke-linecap="square"/>
<path d="M119.28 186.257C119.28 185.706 120.802 182.529 121.255 183.435" stroke="#B5B5B5" stroke-linecap="square"/>
<path d="M122.384 185.692C122.514 184.522 123.53 182.959 124.641 182.589" stroke="#B5B5B5" stroke-linecap="square"/>
<path d="M121.537 160.299C121.739 160.971 122.668 161.256 123.105 161.773C123.607 162.368 124.031 162.918 124.578 163.466C124.969 163.857 125.073 164.606 125.487 164.814" stroke="#B5B5B5" stroke-linecap="square"/>
<path d="M120.973 162.557C122.263 162.718 123.512 164.445 123.512 165.66" stroke="#B5B5B5" stroke-linecap="square"/>
<path d="M138.184 167.917C138.292 167.053 141.089 165.942 141.851 165.942" stroke="#B5B5B5" stroke-linecap="square"/>
<path d="M139.595 170.457C140.701 170.334 141.411 169.328 142.698 169.328" stroke="#B5B5B5" stroke-linecap="square"/>
<path d="M351.272 111.033C350.215 109.365 346.624 103.324 344.597 107.4C343.253 110.104 342.469 113.526 345.128 115.187C345.505 115.423 346.208 116.108 346.682 116.042C346.949 116.004 347.716 115.921 347.92 115.775C348.173 115.593 348.465 115.685 348.723 115.494C349.008 115.281 349.342 115.036 349.652 114.871C350.108 114.629 350.328 114.101 350.601 113.664C351.132 112.814 351.129 111.941 350.959 111.049C350.886 110.666 350.688 108.372 349.879 108.901" stroke="#B5B5B5" stroke-opacity="0.44" stroke-linecap="square"/>
<path d="M349.458 108.638C351.268 107.949 352.875 106.693 354.801 106.251C355.631 106.06 356.45 106.203 357.278 106.163C358.416 106.108 360.494 107.12 361.15 107.998C361.445 108.393 361.72 108.823 361.71 109.353C361.703 109.682 361.614 109.915 361.606 110.246C361.536 112.919 358.28 115.251 355.932 115.103C354.52 115.013 353.486 114.31 352.326 113.586C351.852 113.289 350.112 111.791 349.626 112.109" stroke="#B5B5B5" stroke-opacity="0.44" stroke-linecap="square"/>
<path d="M349.622 112.737C350.642 113.539 350.919 115.36 351.313 116.575C351.529 117.243 351.637 118.548 351.225 119.208C350.872 119.773 350.819 120.482 350.444 121.08C349.682 122.3 348.335 122.666 347 122.854C345.852 123.016 342.904 122.076 342.638 120.678C342.415 119.51 342.458 118.629 342.68 117.444C342.864 116.461 343.189 115.541 343.505 114.582C343.603 114.286 343.926 112.828 344.232 113.576" stroke="#B5B5B5" stroke-opacity="0.44" stroke-linecap="square"/>
<path d="M349.375 106.903C349.369 105.222 349.218 103.637 349.147 101.97C349.097 100.783 347.385 99.513 346.649 98.7849C345.464 97.6132 343.61 96.4592 341.874 96.9582C340.094 97.4701 338.731 98.7006 337.739 100.287C337.347 100.915 336.739 101.628 336.5 102.34C336.437 102.526 336.062 103.548 336.123 103.671C336.277 103.983 336.22 104.512 336.408 104.737C337.105 105.572 337.806 106.465 338.417 107.372C339.683 109.249 340.99 110.919 342.913 112.12C343.54 112.512 344.035 112.931 344.813 112.887C345.055 112.874 345.666 113.082 345.408 112.628" stroke="#B5B5B5" stroke-opacity="0.44" stroke-linecap="square"/>
<path d="M342.317 112.59C341.698 112.367 340.789 112.486 340.109 112.367C339.369 112.237 338.773 112.058 338.146 111.666C337.454 111.234 336.85 111.62 336.13 112.019C334.499 112.921 333.325 114.205 332.333 115.793C331.806 116.637 331.97 116.929 331.911 117.749C331.888 118.067 332.187 118.72 332.231 119.071C332.331 119.863 332.657 121.16 333.033 121.839C333.395 122.493 334.219 123.109 334.4 123.839C334.596 124.626 334.833 124.972 334.821 125.831C334.808 126.758 334.326 127.558 333.844 128.329" stroke="#B5B5B5" stroke-opacity="0.44" stroke-linecap="square"/>
<path d="M344.394 101.477C344.667 101.648 345.734 103.449 345.132 103.411" stroke="#B5B5B5" stroke-opacity="0.44" stroke-linecap="square"/>
<path d="M343.634 103.316C344.171 103.749 344.606 104.778 344.418 105.489" stroke="#B5B5B5" stroke-opacity="0.44" stroke-linecap="square"/>
<path d="M356.519 110.737C356.118 110.636 355.665 111.046 355.262 111.12C354.799 111.205 354.384 111.261 353.928 111.385C353.603 111.473 353.197 111.296 352.955 111.455" stroke="#B5B5B5" stroke-opacity="0.44" stroke-linecap="square"/>
<path d="M355.588 109.734C355.076 110.376 353.8 110.51 353.197 110.133" stroke="#B5B5B5" stroke-opacity="0.44" stroke-linecap="square"/>
<path d="M347.161 117.299C347.554 117.625 347.168 119.47 346.913 119.878" stroke="#B5B5B5" stroke-opacity="0.44" stroke-linecap="square"/>
<path d="M345.429 117.268C345.119 117.9 345.38 118.592 344.949 119.282" stroke="#B5B5B5" stroke-opacity="0.44" stroke-linecap="square"/>
<path d="M398.272 310.033C397.215 308.365 393.624 302.324 391.597 306.4C390.253 309.104 389.469 312.526 392.128 314.187C392.505 314.423 393.208 315.108 393.682 315.042C393.949 315.004 394.716 314.921 394.92 314.775C395.173 314.593 395.465 314.685 395.723 314.494C396.008 314.281 396.342 314.036 396.652 313.871C397.108 313.629 397.328 313.101 397.601 312.664C398.132 311.814 398.129 310.941 397.959 310.049C397.886 309.666 397.688 307.372 396.879 307.901" stroke="#B5B5B5" stroke-opacity="0.44" stroke-linecap="square"/>
<path d="M396.458 307.638C398.268 306.949 399.875 305.693 401.801 305.251C402.631 305.06 403.45 305.203 404.278 305.163C405.416 305.108 407.494 306.12 408.15 306.998C408.445 307.393 408.72 307.823 408.71 308.353C408.703 308.682 408.614 308.915 408.606 309.246C408.536 311.919 405.28 314.251 402.932 314.103C401.52 314.013 400.486 313.31 399.326 312.586C398.852 312.289 397.112 310.791 396.626 311.109" stroke="#B5B5B5" stroke-opacity="0.44" stroke-linecap="square"/>
<path d="M396.622 311.737C397.642 312.539 397.919 314.36 398.313 315.575C398.529 316.243 398.637 317.548 398.225 318.208C397.872 318.773 397.819 319.482 397.444 320.08C396.682 321.3 395.335 321.666 394 321.854C392.852 322.016 389.904 321.076 389.638 319.678C389.415 318.51 389.458 317.629 389.68 316.444C389.864 315.461 390.189 314.541 390.505 313.582C390.603 313.286 390.926 311.828 391.232 312.576" stroke="#B5B5B5" stroke-opacity="0.44" stroke-linecap="square"/>
<path d="M396.375 305.903C396.369 304.222 396.218 302.637 396.147 300.97C396.097 299.783 394.385 298.513 393.649 297.785C392.464 296.613 390.61 295.459 388.874 295.958C387.094 296.47 385.731 297.701 384.739 299.287C384.347 299.915 383.739 300.628 383.5 301.34C383.437 301.526 383.062 302.548 383.123 302.671C383.277 302.983 383.22 303.512 383.408 303.737C384.105 304.572 384.806 305.465 385.417 306.372C386.683 308.249 387.99 309.919 389.913 311.12C390.54 311.512 391.035 311.931 391.813 311.887C392.055 311.874 392.666 312.082 392.408 311.628" stroke="#B5B5B5" stroke-opacity="0.44" stroke-linecap="square"/>
<path d="M389.317 311.59C388.698 311.367 387.789 311.486 387.109 311.367C386.369 311.237 385.773 311.058 385.146 310.666C384.454 310.234 383.85 310.62 383.13 311.019C381.499 311.921 380.325 313.205 379.333 314.793C378.806 315.637 378.97 315.929 378.911 316.749C378.888 317.067 379.187 317.72 379.231 318.071C379.331 318.863 379.657 320.16 380.033 320.839C380.395 321.493 381.219 322.109 381.4 322.839C381.596 323.626 381.833 323.972 381.821 324.831C381.808 325.758 381.326 326.558 380.844 327.329" stroke="#B5B5B5" stroke-opacity="0.44" stroke-linecap="square"/>
<path d="M391.394 300.477C391.667 300.648 392.734 302.449 392.132 302.411" stroke="#B5B5B5" stroke-opacity="0.44" stroke-linecap="square"/>
<path d="M390.634 302.316C391.171 302.749 391.606 303.778 391.418 304.489" stroke="#B5B5B5" stroke-opacity="0.44" stroke-linecap="square"/>
<path d="M403.519 309.737C403.118 309.636 402.665 310.046 402.262 310.12C401.799 310.205 401.384 310.261 400.928 310.385C400.603 310.473 400.197 310.296 399.955 310.455" stroke="#B5B5B5" stroke-opacity="0.44" stroke-linecap="square"/>
<path d="M402.588 308.734C402.076 309.376 400.8 309.51 400.197 309.133" stroke="#B5B5B5" stroke-opacity="0.44" stroke-linecap="square"/>
<path d="M394.161 316.299C394.554 316.625 394.168 318.47 393.913 318.878" stroke="#B5B5B5" stroke-opacity="0.44" stroke-linecap="square"/>
<path d="M392.429 316.268C392.119 316.9 392.38 317.592 391.949 318.282" stroke="#B5B5B5" stroke-opacity="0.44" stroke-linecap="square"/>
<path d="M344.917 188.12C343.394 186.597 342.752 184.337 342.031 182.348C341.625 181.229 341.467 180.408 341.467 179.237C341.467 178.766 341.522 177.863 341.828 177.523C342.313 176.984 342.482 176.547 342.482 177.365C342.482 178.308 343.124 179.659 343.902 180.048C344.235 180.215 345.51 180.968 345.684 181.221C345.997 181.676 346.51 181.627 345.729 181.627" stroke="#B5B5B5" stroke-linecap="square"/>
<path d="M345.729 181.221C345.729 179.821 345.231 178.26 345.537 176.881C345.675 176.262 346.08 178.235 346.18 178.335C346.682 178.837 347.043 179.414 347.657 179.891C348.006 180.163 349.216 180.612 348.773 180.612" stroke="#B5B5B5" stroke-linecap="square"/>
<path d="M348.772 180.612C348.772 178.896 349.423 177.125 349.798 175.438C350.12 173.988 350.179 175.654 350.441 176.148C350.684 176.606 351.215 176.7 351.365 177.117C351.554 177.64 351.79 177.748 352.121 178.188C352.414 178.58 353.802 179.721 353.643 179.8" stroke="#B5B5B5" stroke-linecap="square"/>
<path d="M353.643 179.8C353.643 177.755 354.517 176.008 355.672 174.367C355.97 173.943 356.248 173.51 356.765 173.51C357.148 173.51 356.412 174.252 356.495 174.626C356.609 175.139 357.062 175.194 357.092 175.742C357.112 176.104 357.278 176.679 357.588 176.768C358.022 176.892 358.176 178.516 358.716 178.786" stroke="#B5B5B5" stroke-linecap="square"/>
<path d="M358.716 179.192C358.716 178.142 359.967 177.801 360.452 176.971C360.708 176.531 361.285 175.777 361.602 175.381C361.816 175.113 362.249 174.768 362.571 174.727C363.203 174.648 362.977 174.442 362.977 175.235C362.977 175.663 363.163 176.258 363.383 176.644C363.582 176.991 363.411 177.653 363.631 177.929C363.902 178.268 364.271 178.813 364.398 179.192" stroke="#B5B5B5" stroke-linecap="square"/>
<path d="M364.398 179.192C365.097 178.571 365.701 177.764 366.54 177.32C366.687 177.242 367.787 175.975 367.803 175.99C368.135 176.323 367.848 178.098 367.848 178.583C367.848 178.951 367.848 180.882 367.848 180.206" stroke="#B5B5B5" stroke-linecap="square"/>
<path d="M367.848 180.206C368.804 179.756 369.818 179.833 370.79 179.293C371.067 179.139 372.78 178.697 372.47 179.395C372.193 180.018 371.703 180.596 371.703 181.322C371.703 181.769 371.539 182.045 371.342 182.438C371.027 183.069 371.278 182.835 370.892 182.641" stroke="#B5B5B5" stroke-linecap="square"/>
<path d="M370.892 182.641C371.166 182.422 375.539 180.999 375.751 181.74C375.973 182.517 374.983 183.557 374.95 184.423C374.926 185.051 372.497 188.508 372.109 188.12" stroke="#B5B5B5" stroke-linecap="square"/>
<path d="M345.323 188.12C345.492 189.816 347.243 190.935 348.164 192.224C348.781 193.088 349.573 193.412 350.396 193.847C351.416 194.388 352.446 195.11 353.553 195.674C354.417 196.114 355.436 196.82 356.179 197.432C356.843 197.979 358.136 198.18 358.941 198.582C360.721 199.472 362.372 200.608 364.184 201.401C365.19 201.841 366.231 201.864 367.239 202.224C368.094 202.529 368.852 202.731 369.775 202.731C370.45 202.731 371.172 203.34 371.906 203.34" stroke="#B5B5B5" stroke-linecap="square"/>
<path d="M372.241 188.473C372.213 188.73 371.942 189.023 371.807 189.249C371.437 189.866 371.134 190.634 370.735 191.199C370.038 192.186 369.236 193.228 368.249 193.926C367.795 194.245 367.422 194.866 366.835 195.127C366.568 195.245 365.638 196.02 365.587 196.291C365.564 196.413 364.564 196.915 364.339 197.04C363.932 197.267 363.604 197.759 363.092 197.789C362.595 197.818 360.805 199.205 360.596 198.787" stroke="#B5B5B5" stroke-linecap="square"/>
<path d="M360.929 199.119C361.195 199.149 361.291 199.407 361.465 199.582C361.714 199.83 361.858 199.706 362.167 199.794C362.339 199.843 363.509 200.566 363.591 200.709C363.919 201.285 364.591 201.287 364.958 201.948C365.048 202.109 365.284 202.172 365.421 202.289C365.712 202.539 365.649 202.838 365.855 203.112C366.145 203.499 366.131 204.045 366.419 204.369C366.872 204.879 366.918 206.091 366.918 206.772C366.918 208.146 365.855 209.226 364.755 209.933C363.137 210.973 361.503 211.596 359.561 211.596C358.891 211.596 358.647 211.071 358.434 210.432" stroke="#B5B5B5" stroke-linecap="square"/>
<path d="M64.0599 261.579C63.9823 261.152 63.5578 260.806 63.3421 260.445C62.9206 259.738 62.3418 259.147 61.921 258.449C61.0714 257.04 60.2033 255.529 58.7772 254.645C57.0416 253.57 55.154 252.738 53.2648 251.975C50.9248 251.03 48.0736 251.83 45.9293 252.858C42.2373 254.628 39.8196 257.546 37.9622 261.134C36.5813 263.802 35.5168 266.573 35.7874 269.639C36.095 273.126 37.6733 277.296 40.1657 279.788C42.4189 282.042 45.34 283.643 48.5132 284.059C50.7854 284.357 53.2495 284.502 55.5329 284.16C57.7794 283.823 59.9351 282.135 61.72 280.843C65.0373 278.443 66.9022 275.13 66.9022 271.025C66.9022 269.107 66.0053 267.551 64.9571 265.979C64.1885 264.826 63.4713 263.562 62.5167 262.548C62.0393 262.041 61.8474 261.304 61.3468 260.804" stroke="#B5B5B5" stroke-linecap="square"/>
<path d="M50.1031 285.054C49.8069 285.646 49.7093 286.287 49.3099 286.838C48.9239 287.371 48.5524 287.932 48.3468 288.566C48.2292 288.929 47.8483 289.118 47.8085 289.515C47.7681 289.919 47.5508 290.277 47.4544 290.663C47.3801 290.96 47.1823 291.365 47.1711 291.654C47.1604 291.932 46.929 292.103 46.9162 292.32C46.885 292.849 46.9162 293.39 46.9162 293.92C46.9162 294.407 47.0943 294.996 47.1782 295.5C47.274 296.075 47.1585 296.88 47.3978 297.419C47.695 298.088 47.9132 298.91 48.3893 299.522C49.1813 300.541 49.5125 301.786 50.436 302.709C50.9722 303.245 51.7614 303.501 52.2702 304.118C52.6785 304.614 53.2524 305.067 53.4459 305.705C53.6971 306.534 54.0549 307.154 54.0549 308.07C54.0549 308.75 54.0217 309.379 53.8566 310.039C53.359 312.029 52.3851 315.173 54.9189 316.186C55.9376 316.594 57.0399 317.178 58.1625 317.178C58.6394 317.178 59.1162 317.178 59.5931 317.178C60.184 317.178 60.3777 317.02 60.9104 316.795C62.5901 316.086 64.3524 315.081 65.2304 313.382C65.783 312.312 66.4202 311.136 66.4202 309.912C66.4202 308.007 66.1653 306.138 66.1653 304.246C66.1653 302.854 66.3967 301.991 67.44 301.052C68.3115 300.268 69.9035 300.354 70.8111 300.932C72.336 301.902 73.049 298.179 73.049 297.164C73.049 295.904 71.814 294.997 70.5561 294.997C69.8177 294.997 67.4788 295.074 68.0774 296.272" stroke="#B5B5B5" stroke-linecap="square"/>
<path d="M45.5135 294.742C45.1832 294.676 44.8833 294.394 44.5433 294.296C44.0236 294.145 43.5022 294.034 42.9923 293.849C42.0506 293.509 41.0853 293.308 40.1028 293.205C39.5719 293.149 39.1004 292.78 38.5518 292.695C38.1161 292.628 37.3826 292.297 37.0008 292.065C35.6307 291.233 33.9709 290.555 32.9003 289.324C31.9835 288.27 31.2239 287.25 30.5562 286.102C30.2555 285.585 30.0563 284.97 29.8621 284.388C29.6698 283.811 29.4535 282.904 29.0831 282.454C28.84 282.159 28.6033 281.53 28.4882 281.151C28.2408 280.339 27.94 279.643 27.9216 278.779C27.9124 278.347 27.7177 278.053 27.61 277.653C27.4935 277.22 27.5438 276.767 27.4401 276.328C27.3371 275.894 27.323 275.47 27.2205 275.04C27.0482 274.316 27.0293 272.072 27.0293 272.816" stroke="#B5B5B5" stroke-linecap="square"/>
<path d="M48.8281 298.821C50.1182 297.961 51.8388 297.711 53.2615 297.065C54.7285 296.398 56.0865 295.578 57.4966 294.806C58.5293 294.24 59.4135 293.476 60.2373 292.653C60.6647 292.225 61.2676 291.953 61.7387 291.569C62.4701 290.973 63.1709 290.349 63.8563 289.699C65.2371 288.391 66.1864 286.523 67.2982 284.997C67.7655 284.355 68.3538 283.748 68.7429 283.056C69.3045 282.058 69.73 280.916 70.1168 279.841C70.3985 279.059 70.8134 278.344 71.1366 277.582C71.2807 277.242 71.3023 276.833 71.4624 276.513C71.5689 276.3 71.774 276.193 71.774 275.939C71.774 275.848 71.774 275.331 71.774 275.493" stroke="#B5B5B5" stroke-linecap="square"/>
<path d="M52.6525 312.461C51.5941 312.461 50.3672 312.896 49.3522 313.169C48.4527 313.412 47.453 313.771 46.5336 313.863C45.5076 313.966 44.5986 314.779 43.899 315.478C42.6327 316.744 42.0996 318.371 41.3707 319.982C39.9001 323.233 39.6498 326.939 39.6498 330.45C39.6498 331.569 39.6498 332.688 39.6498 333.807C39.6498 334.575 39.5335 335.441 39.7773 336.172" stroke="#B5B5B5" stroke-linecap="square"/>
<path d="M52.6529 316.031C51.9107 316.938 51.3563 317.965 50.6274 318.899C49.4526 320.404 48.4776 321.994 47.6954 323.736C46.6452 326.075 46.534 328.842 46.534 331.363C46.534 332.267 46.4727 333.184 46.6331 334.076C46.7301 334.615 46.6782 335.31 46.9447 335.789C47.1757 336.205 47.2686 336.139 47.2988 336.682C47.3165 337 47.5453 337.081 47.6812 336.809" stroke="#B5B5B5" stroke-linecap="square"/>
<path d="M45.1432 263.139C44.526 263.139 43.8782 263.647 43.4797 264.112C43.321 264.297 43.3013 264.622 43.252 264.853C43.1533 265.313 43.1904 265.791 43.2674 266.254C43.4374 267.274 44.3386 267.794 45.313 267.794C46.0385 267.794 46.6433 267.476 47.1617 266.983C47.6277 266.54 47.8996 265.699 47.9221 265.069C47.9288 264.879 47.9221 264.687 47.9221 264.498C47.9221 264.304 47.8038 264.218 47.7831 264.042C47.7508 263.767 46.5856 263.728 46.3937 263.641C45.9776 263.452 45.6627 263.417 45.2127 263.417" stroke="#B5B5B5" stroke-linecap="square"/>
<path d="M57.231 263.347C56.8925 263.601 56.4436 263.709 56.0924 263.969C55.8249 264.167 55.5534 264.442 55.39 264.733C55.1817 265.103 55.2858 265.691 55.2858 266.111C55.2858 267.203 57.3996 267.145 58.138 266.96C59.1249 266.713 59.2457 265.373 59.2457 264.521C59.2457 264.172 59.2203 263.856 58.9832 263.61C58.899 263.522 58.6804 263.331 58.6359 263.224C58.5151 262.934 57.2987 263 57.0921 263" stroke="#B5B5B5" stroke-linecap="square"/>
<path d="M50.4228 272.379C48.7143 271.659 46.7851 271.002 44.8998 271.205C44.2083 271.28 43.5384 271.721 42.9662 272.078C42.2148 272.546 41.6193 273.143 41.183 273.923C40.7915 274.623 41.1625 275.335 41.4223 275.991C41.8699 277.122 42.9718 277.964 44.1047 278.38C44.9952 278.708 45.9774 279.113 46.9492 278.871C47.4309 278.75 48.1244 278.421 48.4815 278.064C49.0051 277.54 49.5415 276.984 49.9211 276.339C49.9914 276.219 49.9958 276.136 50.0099 275.995C50.0319 275.775 50.2258 275.622 50.2762 275.409C50.3825 274.957 50.4248 274.496 50.527 274.046C50.5882 273.777 50.5618 273.488 50.5618 273.212C50.5618 272.889 50.8342 272.91 51.0635 272.78C51.5954 272.478 52.1076 272.119 52.6073 271.769C53.0459 271.462 53.6814 271.407 54.1898 271.267C55.4439 270.923 56.6105 271.091 57.8178 271.472C58.471 271.678 58.8928 272.339 59.1609 272.935C59.3935 273.451 59.4542 274.059 59.4542 274.644C59.4542 275.332 59.3757 275.717 58.7904 276.165C58.3883 276.472 58.1468 276.846 57.6402 277.033C56.9613 277.285 56.341 277.683 55.6178 277.813C54.5502 278.006 53.7191 277.819 53.028 276.964C52.2161 275.959 51.808 274.975 51.4804 273.73C51.3715 273.316 51.1464 272.527 50.7007 272.379" stroke="#B5B5B5" stroke-linecap="square"/>
<path d="M50.0059 280.368C50.0059 280.743 49.8021 281.034 49.674 281.379C49.5512 281.71 49.4945 282.076 49.4347 282.421C49.3396 282.971 49.4353 283.285 49.7396 283.741C50.0309 284.178 50.5416 284.41 51.0557 284.293C51.6353 284.162 52.4342 283.866 52.7848 283.34C53.2594 282.628 53.048 281.225 52.5494 280.615C51.937 279.867 50.5784 279.454 49.728 280.021" stroke="#B5B5B5" stroke-linecap="square"/>
<path d="M37.0418 261.662C35.8382 261.029 34.7455 260.204 33.61 259.46C31.549 258.11 29.3947 256.937 27.3138 255.623C24.3771 253.768 21.1509 251.973 18.6802 249.502" stroke="#B5B5B5" stroke-linecap="square"/>
<path d="M38.015 258.014C37.7503 257.75 37.446 257.45 37.103 257.292C36.788 257.146 36.7016 256.86 36.3802 256.677C36.1561 256.549 36.3095 256.455 35.9478 256.434C35.7186 256.42 35.583 256.146 35.583 255.947" stroke="#B5B5B5" stroke-linecap="square"/>
<path d="M40.6898 256.312C40.6093 255.587 39.755 254.777 39.3454 254.231C38.8337 253.549 38.4408 252.809 37.9605 252.11C37.3927 251.283 36.6578 250.549 35.9947 249.8C34.7122 248.35 33.4217 246.855 32.0562 245.49" stroke="#B5B5B5" stroke-linecap="square"/>
<path d="M43.2436 252.786C43.2007 252.314 42.7457 251.955 42.568 251.522C42.1973 250.62 41.859 249.629 41.3588 248.786C41.1369 248.413 40.5684 247.742 40.5684 247.314" stroke="#B5B5B5" stroke-linecap="square"/>
<path d="M46.4194 250.582C46.1145 246.923 44.8436 243.324 44.4582 239.663C44.3298 238.442 43.8909 237.292 43.7683 236.065C43.7138 235.52 43.5811 235.359 43.5811 236.036" stroke="#B5B5B5" stroke-linecap="square"/>
<path d="M51.0317 242.422V248.454" stroke="#B5B5B5" stroke-linecap="square"/>
<path d="M54.5796 251.469C55.3919 251.374 56.3514 249.541 56.6985 248.887C57.5154 247.348 58.0534 245.663 59.0145 244.196C59.888 242.863 61.1731 241.623 61.6754 240.116" stroke="#B5B5B5" stroke-linecap="square"/>
<path d="M61.498 254.662C61.7024 254.049 63.1308 253.134 63.6071 252.731C64.3593 252.094 65.1423 251.485 65.933 250.898C66.207 250.694 67.0899 250.476 67.1649 250.139C67.2686 249.672 67.5284 249.755 67.8843 249.518" stroke="#B5B5B5" stroke-linecap="square"/>
<path d="M63.8042 258.92C66.0356 258.92 68.5634 257.537 70.6832 256.831C71.4421 256.578 72.1343 256.321 72.8514 256.082" stroke="#B5B5B5" stroke-linecap="square"/>
<path d="M66.6426 266.548C68.6581 265.852 70.6291 265.016 72.6543 264.35C74.2412 263.829 75.7892 263.419 77.2864 262.685C77.609 262.526 79.1406 261.965 79.2279 261.66C79.3236 261.324 79.4697 261.199 79.7699 261.049" stroke="#B5B5B5" stroke-linecap="square"/>
<path d="M330.309 3.67758C327.547 7.36108 326.234 12.8313 324.169 16.9625C322.384 20.5319 321.307 24.3638 321.866 28.4171C322.888 35.8291 327.282 38.8073 333.144 42.3516C341.86 47.6223 356.502 52.3622 365.264 44.4772C366.237 43.6015 372.154 38.9016 369.899 41.9087C367.538 45.0567 364.778 50.0076 363.492 53.8652C360.495 62.8558 357.171 72.0608 359.3 81.7931C361.06 89.8401 368.419 95.6095 376.807 95.6095C379.552 95.6095 382.298 95.6095 385.043 95.6095C387.085 95.6095 384.792 96.0454 383.981 96.1409C383.146 96.2391 381.924 98.111 381.826 98.7979C381.647 100.05 380.757 101.167 380.527 102.547C380.061 105.337 380.142 108.12 379.493 110.902C376.906 121.99 384.087 133.222 393.9 137.826C401.176 141.24 407.459 143.945 415.392 145.531C423.131 147.079 430.426 144.077 437.859 142.933C439.812 142.633 440.24 144.187 440.309 145.974C440.371 147.592 441.819 148.299 441.903 149.812C442.035 152.184 443.211 155.475 444.029 157.724C445.505 161.785 447.147 166.171 449.608 169.769C451.515 172.556 452.303 175.844 454.125 178.626" stroke="#B5B5B5" stroke-linecap="square"/>
<path d="M375.508 377.798C373.486 377.798 370.988 378.352 369.148 379.15C367.192 379.997 365.822 381.784 364.775 383.602C363.542 385.743 363.457 388.104 363.591 390.518C363.711 392.681 365.091 394.299 366.771 395.527C368.487 396.781 370.208 397.355 372.328 397.355C372.697 397.355 373.157 397.427 373.52 397.347C373.887 397.265 374.207 396.919 374.554 396.878C374.737 396.857 374.908 396.581 375.084 396.49C375.616 396.211 376.131 395.976 376.612 395.615C376.958 395.355 377.389 395.436 377.734 395.253C377.925 395.151 377.811 394.963 377.928 394.847C378.092 394.682 378.42 394.71 378.608 394.564C378.733 394.467 379.307 394.016 379.165 394.016" stroke="#B5B5B5" stroke-linecap="square"/>
<path d="M375.03 375.572C375.41 374.728 375.517 373.753 375.79 372.869C376.564 370.359 376.941 367.735 377.83 365.264C378.4 363.683 378.821 360.755 380.198 359.531C380.751 359.039 381.006 358.141 381.62 357.702C381.919 357.489 381.867 359.39 381.867 359.451C381.867 362.796 382.173 366.271 381.514 369.566C381.201 371.129 381.072 373.069 381.072 374.618" stroke="#B5B5B5" stroke-linecap="square"/>
<path d="M381.708 366.35C382.234 366.029 382.616 365.442 383.051 365.008C384.102 363.957 385.13 362.874 385.957 361.633C386.805 360.362 387.445 359.001 388.228 357.711C388.683 356.961 388.546 358.562 388.546 358.798C388.546 360.812 388.782 362.799 388.696 364.822C388.579 367.575 388.137 371.001 386.885 373.505C386.572 374.132 386.878 374.592 386.32 375.184C386.195 375.315 385.956 376.276 385.684 375.731" stroke="#B5B5B5" stroke-linecap="square"/>
<path d="M386.978 380.581C391.742 378.992 396.129 376.595 401.288 376.595C403.117 376.595 406.109 376.539 407.778 377.467C409.036 378.165 410.67 378.674 412 379.5C414.068 380.783 416.044 382.82 417.757 384.567C419.453 386.296 420.079 388.488 421.466 390.379C422.054 391.181 422.097 392.625 422.407 393.59C422.608 394.217 423.695 396.35 422.85 396.773" stroke="#B5B5B5" stroke-linecap="square"/>
<path d="M416.622 394.531C416.439 392.882 413.955 391.282 412.83 390.241C412.295 389.745 411.652 389.423 411.142 388.912C410.675 388.446 410.043 388.597 409.522 388.193C408.611 387.484 407.349 387.329 406.27 387.113C403.309 386.521 400.712 387.278 398.575 389.314C396.912 390.898 395.946 394.414 395.946 396.648C395.946 398.158 396.246 398.781 396.998 400.011C397.995 401.643 401.501 403.191 403.253 403.471C404.69 403.701 406.172 404.974 407.156 403.499" stroke="#B5B5B5" stroke-linecap="square"/>
<path d="M422.949 392.307C422.949 391.831 423.174 391.301 423.299 390.842C423.415 390.418 423.586 390.142 423.785 389.766C423.891 389.567 424.119 389.331 424.362 389.331C425.204 389.331 426.123 389.345 426.891 389.74C427.642 390.126 428.136 390.865 428.375 391.639C428.533 392.149 428.62 392.648 428.713 393.17C428.789 393.6 428.812 394.286 428.612 394.671C428.455 394.972 428.387 395.227 428.171 395.491C427.967 395.74 427.738 395.93 427.526 396.162C427.311 396.396 426.827 396.407 426.541 396.538C426.313 396.641 425.911 396.567 425.662 396.567C424.674 396.567 423.82 395.741 423.416 394.933" stroke="#B5B5B5" stroke-linecap="square"/>
<path d="M382.053 397.129C381.589 398.673 381.002 400.112 380.343 401.573C379.964 402.413 379.532 403.163 379.231 404.037C378.91 404.969 378.261 407.815 378.261 406.829" stroke="#B5B5B5" stroke-linecap="square"/>
<path d="M386.992 398.981C386.63 400.229 385.811 401.457 385.14 402.557C384.422 403.733 383.762 404.946 383.116 406.163C382.852 406.662 382.432 407.178 382.249 407.711C382.164 407.959 381.86 408.599 381.612 408.681" stroke="#B5B5B5" stroke-linecap="square"/>
<path d="M407.43 403.516C407.98 403.516 408.405 403.454 408.405 404.117C408.405 404.42 408.313 404.524 408.063 404.683C407.612 404.97 407.288 405.359 406.834 405.654C406.5 405.871 406.185 406.189 405.821 406.351C405.641 406.43 405.158 406.435 404.97 406.442C404.383 406.466 403.536 406.364 403.191 406.901C402.976 407.235 402.703 407.598 402.703 408.001C402.703 408.52 403.019 408.936 403.445 409.21C404.27 409.74 404.982 409.457 405.896 409.235C406.41 409.11 406.955 409.009 407.438 408.768C408.073 408.45 408.762 408.41 409.413 408.13C409.765 407.979 410.166 408.077 410.505 407.926C410.723 407.829 410.981 407.843 411.181 407.943" stroke="#B5B5B5" stroke-linecap="square"/>
<path d="M20.0962 398.514C28.9684 404.429 37.5023 411.408 48.9159 409.756C63.4473 407.653 75.3453 396.078 81.7554 383.525C85.1895 376.8 86.4953 372.177 78.0082 369.49C73.7257 368.134 60.1081 366.845 58.1137 372.556C55.6902 379.496 63.124 390.713 67.3115 395.55C72.4267 401.459 82.1569 406.034 89.9313 403.011C99.0179 399.477 107.975 390.942 110.711 381.515C112.709 374.634 106.251 372.796 100.56 370.75C95.5568 368.952 94.4336 369.986 95.0411 375.009C96.7811 389.392 107.436 401.868 122.635 399.945C132.901 398.646 142.604 388.964 148.048 380.63C151.288 375.668 147.393 372.245 143.517 369.081C139.101 365.476 131.05 361.213 126.45 366.901C123.189 370.933 123.139 376.474 128.358 378.62C144.048 385.07 154.384 365.656 154.384 352.525" stroke="#585858" stroke-linecap="round"/>
</svg>
